/* XPM */
static char * door_xpm[] = {
"32 32 76 1",
" 	c #CEC88C",
".	c #EFE9A7",
"+	c #000000",
"@	c #EFE9A5",
"#	c #FF0000",
"$	c #EAE28B",
"%	c #FFFFFF",
"&	c #E5DB74",
"*	c #DED468",
"=	c #DCD264",
"-	c #E2D86F",
";	c #E2D86E",
">	c #E2D76E",
",	c #DCD269",
"'	c #D9CF65",
")	c #DED46B",
"!	c #DFD56B",
"~	c #D9CF66",
"{	c #DBD168",
"]	c #E1D76D",
"^	c #D9CE5D",
"/	c #D8CD5C",
"(	c #C5BC4A",
"_	c #BAB13F",
":	c #CCC251",
"<	c #191919",
"[	c #CFC453",
"}	c #BCB341",
"|	c #C3B948",
"1	c #D5CB5A",
"2	c #D5CA56",
"3	c #D3C854",
"4	c #BCB23D",
"5	c #ADA32E",
"6	c #C4BA46",
"7	c #C7BD49",
"8	c #B0A631",
"9	c #B9AF3A",
"0	c #D0C652",
"a	c #C5BB46",
"b	c #CDC24E",
"c	c #D1C652",
"d	c #AEA530",
"e	c #C1B742",
"f	c #CCC14D",
"g	c #BCB23E",
"h	c #C8BE4A",
"i	c #CFC450",
"j	c #D3C955",
"k	c #D4C955",
"l	c #807676",
"m	c #CABF4B",
"n	c #BEB43F",
"o	c #C3B945",
"p	c #B2A834",
"q	c #CDC34F",
"r	c #B6AC37",
"s	c #C1B743",
"t	c #AAA12C",
"u	c #B6AD38",
"v	c #BBB13C",
"w	c #C5BA46",
"x	c #B1A733",
"y	c #C2B844",
"z	c #C8BE49",
"A	c #CEC44F",
"B	c #CBC04C",
"C	c #D0C551",
"D	c #B4AA35",
"E	c #C4BA45",
"F	c #B7AD38",
"G	c #C5BB47",
"H	c #CEC34F",
"I	c #B8AE39",
"J	c #ACA32E",
"K	c #A89F2A",
"                                ",
"................................",
"................................",
"................................",
"................................",
"........++++++++++++++++........",
"@@@@@@@@+##############+@@@@@@@@",
"$$$$$$$$+#%%#%#%#%#%%%#+$$$$$$$$",
"&&&&&&&&+#%##%#%#%##%##+&&&&&&&&",
"********+#%%##%##%##%##+********",
"========+#%##%#%#%##%##+========",
"--------+#%%#%#%#%##%##+--------",
";;>,');;+##############+;!~{];;;",
"^^/(_:^^+##############<^[}|1^^^",
"22345622+##############+27890222",
"22345622+##############+27890222",
"ab345622+##############+c7890222",
"de345622+##############+f7890222",
"gh345622+#+##########+#+i7890222",
"jk345622+#+##########+#+27890222",
"22345622+#+llllllllll+#+2789022m",
"jk34562k+#+##########+#+27890kjn",
"gh3456co+##############+i7890mgp",
"de3456qr+##############+f7890stt",
"ab3456qr+##############+c7890stu",
"223456iv+##############+27890wxy",
"2234563f+##############+27890izA",
"BC345622+##############+3789022C",
"DE345622+##############+b789022E",
"FG34563f+##############+H7890izI",
"Hc3456iv+##############+37890wxJ",
"223456qr++++++++++++++++27890stK"};
