/* XPM */
static char * right_xpm[] = {
"30 32 8 1",
" 	c None",
".	c #252525",
"+	c #414141",
"@	c #413A3A",
"#	c #2D2524",
"$	c #000000",
"%	c #241D1D",
"&	c #3F3232",
"                              ",
"                              ",
"                              ",
"                              ",
"                              ",
"                              ",
"       .                      ",
"      .+.           .         ",
"      .+.          .@.        ",
"      #+.         .@++.       ",
"      #+.         .+++...     ",
"      #+.        .+++++++.    ",
"      #+.        #+++++$+.    ",
"      %@+.       #+++++$++$   ",
"       #++.....#%@+++++++@#   ",
"       %@+++++++++@+++++@#    ",
"        #++++++++++@@&%%%     ",
"        #+++++++++++@%        ",
"        %@++++++++++@%        ",
"         %+++++++++@%         ",
"         #@#######@#          ",
"         #@#     #@#          ",
"         #@#     #@#          ",
"         #@#     #@#          ",
"         ###     ###          ",
"                              ",
"                              ",
"                              ",
"                              ",
"                              ",
"                              ",
"                              "};
