/* XPM */
static char * up_xpm[] = {
"29 32 8 1",
" 	c None",
".	c #2D2524",
"+	c #413A3A",
"@	c #414141",
"#	c #3F3232",
"$	c #252525",
"%	c #241D1D",
"&	c #000000",
"                             ",
"                             ",
"                             ",
"                             ",
"                             ",
"          .       .          ",
"         .+.     .+.         ",
"         .@+.   .+@.         ",
"         .@#.....#@.         ",
"         .+.@@@@@.+.         ",
"         .+@@@$@@@+%         ",
"         %+@@$@$@@+%         ",
"         %#+@$@.@+#&         ",
"          &#+.@.+#&          ",
"          &++.@.++&          ",
"          %+@%@%@+%          ",
"          .@.+@+.@.          ",
"          $+@@@@@+$          ",
"          $@@@@@@@$          ",
"          .@@@@@@@.          ",
"          %+@@@@@+%          ",
"           %@...@%           ",
"           .+. .+.           ",
"           .+. .+.           ",
"           .+. .+.           ",
"            .. ..            ",
"                             ",
"                             ",
"                             ",
"                             ",
"                             ",
"                             "};
