/* XPM */
static char * up_3_xpm[] = {
"32 32 8 1",
" 	c None",
".	c #2D2524",
"+	c #413A3A",
"@	c #414141",
"#	c #3F3232",
"$	c #241D1D",
"%	c #252525",
"&	c #000000",
"                                ",
"                                ",
"                                ",
"                                ",
"                                ",
"                                ",
"           .       .            ",
"          .+.     .+.           ",
"          .@+.   .+@.           ",
"          .@#.....#@.           ",
"          .+.@@@@@.+.           ",
"          .+@@@@@@@+$           ",
"          $+@@@%@@@+$           ",
"          $#+@%@%@+#&           ",
"           &#+%@.+#&            ",
"           &++.@.++&            ",
"           $+@.@.@+$            ",
"           .@@$@$@@.            ",
"           %@.+@+.@%            ",
"           %+@@@@@+%            ",
"           %@@@@@@@%            ",
"           .@@@@@@@.            ",
"           $+@@@@@+$            ",
"            $@...@$             ",
"            .+. .+.             ",
"            .+. .+.             ",
"            .+. .+.             ",
"             .. ..              ",
"                                ",
"                                ",
"                                ",
"                                "};
