/* XPM */
static char * floor_xpm[] = {
"32 32 45 1",
" 	c #B78C41",
".	c #B3883D",
"+	c #AC8035",
"@	c #AE8338",
"#	c #B68A40",
"$	c #B1863B",
"%	c #AA7E33",
"&	c #B0853A",
"*	c #B58A3F",
"=	c #A87C31",
"-	c #B2863B",
";	c #B2873C",
">	c #AB7F34",
",	c #A87B31",
"'	c #A6792E",
")	c #A77B30",
"!	c #AE8237",
"~	c #9E7127",
"{	c #A4772D",
"]	c #B4893E",
"^	c #9A6C22",
"/	c #B68B40",
"(	c #9C6F24",
"_	c #AF8339",
":	c #A97D32",
"<	c #AE8238",
"[	c #AB7F35",
"}	c #9C6E24",
"|	c #A77A30",
"1	c #AD8136",
"2	c #B1853A",
"3	c #A2752B",
"4	c #9D6F25",
"5	c #B5893E",
"6	c #AF8338",
"7	c #A07328",
"8	c #A5792E",
"9	c #9E7026",
"0	c #B1853B",
"a	c #B4883D",
"b	c #B08439",
"c	c #A67A2F",
"d	c #996B21",
"e	c #A3762C",
"f	c #A2742A",
"     .+@#$%&  *+=-    ;>,')%$   ",
"     !~{]%^=   //     +('*)^%   ",
"     ;%))))_          $:</_=&   ",
"//    /[}'*/ //        //     //",
"+=-  -=|:,'</1)2      2)1/   *+=",
"34[5/678]>(:/)9>]/  /]>9)/  *034",
"(^7=;a!b/;+$ 2>c|$  $|c>2  /+3(^",
"^d}e0         ]|f_  _f|]   /=4^d",
"7})b*         /$_]  ]_$/    -[7}",
"=eb  *0;/                    5=e",
";0*  be=5                    /;0",
"   *b)}7[-    /$_]  ]_$/        ",
"   0e}d^4=/   ]|f_  _f|]        ",
"b!a;=7^(3+/  2>c|$  $|c>2 $+;/b!",
"876/5[430*  /)9>]/  /]>9)/:(>]87",
"|=-  -=+*   /1)2      2)1/<',:|=",
"[/    //     //        // /*'}[/",
")%;      &=_/<:$          _))))%",
"{~!      %^)*'(+     //   =^%]{~",
"@+.      $%)',>;    -=+*  &%$#@+",
"         #])}:]/  /5[430*       ",
"         @{)[|8b  ;=7^(3+/      ",
"         +~%/=7!  0e}d^4=/      ",
"         .!; -6a  *b)}7[-       ",
"              /;0*  be=5        ",
"              5=eb  *0;/        ",
"             -[7})b*  a6- ;!.   ",
"            /=4^d}e0  !7=/%~+   ",
"            /+3(^7=;  b8|[){@   ",
"             *034[5/  /]:})]#   ",
"     .+@#$%&  *+=-    ;>,')%$   ",
"     !~{]%^=   //     +('*)^%   "};
