/* XPM */
static char * wall_left_xpm[] = {
"32 32 12 1",
" 	c #EFE9A7",
".	c #EBE392",
"+	c #E6DC78",
"@	c #262308",
"#	c #252208",
"$	c #282608",
"%	c #242108",
"&	c #201E06",
"*	c #1F1D06",
"=	c #1C1A06",
"-	c #181705",
";	c #171605",
" ..+@#$$@##%&**=-;;;;;;;;;;;;;;;",
" ..+@#$$@##%&**=-;;;;;;;;;;;;;;;",
" ..+@#$$@##%&**=-;;;;;;;;;;;;;;;",
" ..+@#$$@##%&**=-;;;;;;;;;;;;;;;",
" ..+@#$$@##%&**=-;;;;;;;;;;;;;;;",
" ..+@#$$@##%&**=-;;;;;;;;;;;;;;;",
" ..+@#$$@##%&**=-;;;;;;;;;;;;;;;",
" ..+@#$$@##%&**=-;;;;;;;;;;;;;;;",
" ..+@#$$@##%&**=-;;;;;;;;;;;;;;;",
" ..+@#$$@##%&**=-;;;;;;;;;;;;;;;",
" ..+@#$$@##%&**=-;;;;;;;;;;;;;;;",
" ..+@#$$@##%&**=-;;;;;;;;;;;;;;;",
" ..+@#$$@##%&**=-;;;;;;;;;;;;;;;",
" ..+@#$$@##%&**=-;;;;;;;;;;;;;;;",
" ..+@#$$@##%&**=-;;;;;;;;;;;;;;;",
" ..+@#$$@##%&**=-;;;;;;;;;;;;;;;",
" ..+@#$$@##%&**=-;;;;;;;;;;;;;;;",
" ..+@#$$@##%&**=-;;;;;;;;;;;;;;;",
" ..+@#$$@##%&**=-;;;;;;;;;;;;;;;",
" ..+@#$$@##%&**=-;;;;;;;;;;;;;;;",
" ..+@#$$@##%&**=-;;;;;;;;;;;;;;;",
" ..+@#$$@##%&**=-;;;;;;;;;;;;;;;",
" ..+@#$$@##%&**=-;;;;;;;;;;;;;;;",
" ..+@#$$@##%&**=-;;;;;;;;;;;;;;;",
" ..+@#$$@##%&**=-;;;;;;;;;;;;;;;",
" ..+@#$$@##%&**=-;;;;;;;;;;;;;;;",
" ..+@#$$@##%&**=-;;;;;;;;;;;;;;;",
" ..+@#$$@##%&**=-;;;;;;;;;;;;;;;",
" ..+@#$$@##%&**=-;;;;;;;;;;;;;;;",
" ..+@#$$@##%&**=-;;;;;;;;;;;;;;;",
" ..+@#$$@##%&**=-;;;;;;;;;;;;;;;",
" ..+@#$$@##%&**=-;;;;;;;;;;;;;;;"};
