/* XPM */
static char * wall_point_l_xpm[] = {
"32 32 155 2",
"  	c #C19E50",
". 	c #C8AC5C",
"+ 	c #CBB160",
"@ 	c #CBB05F",
"# 	c #CAAF5E",
"$ 	c #CBB15F",
"% 	c #C9AE5D",
"& 	c #C4AB5B",
"* 	c #C9AF5E",
"= 	c #CCB160",
"- 	c #CDB260",
"; 	c #CCB15F",
"> 	c #CBB05E",
", 	c #CBAF5E",
"' 	c #CAB05F",
") 	c #C7AC5C",
"! 	c #C3A959",
"~ 	c #C7AD5C",
"{ 	c #CCB064",
"] 	c #DBCA7C",
"^ 	c #E1D383",
"/ 	c #E2D484",
"( 	c #E2D384",
"_ 	c #E1D384",
": 	c #DFD283",
"< 	c #E0D383",
"[ 	c #D1B974",
"} 	c #E4D891",
"| 	c #EBE29C",
"1 	c #EBE49B",
"2 	c #EBE299",
"3 	c #EAE299",
"4 	c #E9E299",
"5 	c #D2BB78",
"6 	c #E7DC98",
"7 	c #ECE6A1",
"8 	c #E4DD90",
"9 	c #DFD88C",
"0 	c #DED78C",
"a 	c #D2BB79",
"b 	c #E7DC99",
"c 	c #E4DD92",
"d 	c #C6BF73",
"e 	c #ACA561",
"f 	c #A49E5D",
"g 	c #D1B977",
"h 	c #E6DB99",
"i 	c #ECE4A1",
"j 	c #DFD78C",
"k 	c #A6A05C",
"l 	c #6D6836",
"m 	c #59562B",
"n 	c #58542A",
"o 	c #CCB674",
"p 	c #E5DA98",
"q 	c #EBE4A1",
"r 	c #DDD68B",
"s 	c #9D9756",
"t 	c #535026",
"u 	c #333111",
"v 	c #2F2D0E",
"w 	c #2F2C0E",
"x 	c #CBB574",
"y 	c #DCD68A",
"z 	c #9B9656",
"A 	c #504C24",
"B 	c #2C290C",
"C 	c #262308",
"D 	c #252208",
"E 	c #D0B877",
"F 	c #9B9556",
"G 	c #4F4B24",
"H 	c #2A270B",
"I 	c #242108",
"J 	c #232008",
"K 	c #232007",
"L 	c #D2BA78",
"M 	c #ECE5A1",
"N 	c #29260B",
"O 	c #211F06",
"P 	c #1F1D06",
"Q 	c #D1BA78",
"R 	c #28250B",
"S 	c #1D1B06",
"T 	c #1B1A06",
"U 	c #27250B",
"V 	c #1A1805",
"W 	c #181705",
"X 	c #171605",
"Y 	c #1C1A06",
"Z 	c #D2BC79",
"` 	c #E7DB99",
" .	c #1C1B06",
"..	c #CFB777",
"+.	c #1D1C06",
"@.	c #1A1905",
"#.	c #191705",
"$.	c #CBB474",
"%.	c #E4DA98",
"&.	c #1E1C06",
"*.	c #CCB676",
"=.	c #E5DA99",
"-.	c #221F07",
";.	c #201E06",
">.	c #D1B978",
",.	c #2A270C",
"'.	c #232108",
").	c #504D24",
"!.	c #2D2A0D",
"~.	c #272409",
"{.	c #D0B978",
"].	c #E6DC99",
"^.	c #DDD78B",
"/.	c #9E9957",
"(.	c #59562A",
"_.	c #3E3B18",
":.	c #3B3816",
"<.	c #3B3716",
"[.	c #E0D98C",
"}.	c #B0A962",
"|.	c #837E45",
"1.	c #76723E",
"2.	c #75703D",
"3.	c #D0BA78",
"4.	c #E8E194",
"5.	c #D4CD7F",
"6.	c #C5BE74",
"7.	c #C2BB72",
"8.	c #C2BA72",
"9.	c #D1BA76",
"0.	c #E6DB97",
"a.	c #ECE59D",
"b.	c #E9E197",
"c.	c #E6DF95",
"d.	c #E5DE94",
"e.	c #E5DD94",
"f.	c #D0B870",
"g.	c #E2D58C",
"h.	c #E9E096",
"i.	c #EAE096",
"j.	c #EAE095",
"k.	c #E9E095",
"l.	c #E7E095",
"m.	c #E7E094",
"n.	c #E8E095",
"o.	c #E8E094",
"p.	c #C8AB5E",
"q.	c #D5C071",
"r.	c #D9C977",
"s.	c #DAC979",
"t.	c #DAC978",
"u.	c #D6C676",
"v.	c #D9C978",
"w.	c #D8C777",
"x.	c #D6C576",
"  . + @ # # @ $ % & & * = - - - - - ; > # , $ ' ) ! ~ $ - - - - ",
"{ ] ^ / ( ( ( / _ : : _ / / / / / / / ( ( ( / ( < : < / / / / / ",
"[ } | 1 2 3 3 3 3 4 4 3 3 3 3 3 3 3 3 3 3 3 3 3 3 3 3 3 3 3 3 3 ",
"5 6 7 1 8 9 0 0 0 0 0 0 0 0 0 0 0 0 0 0 0 0 0 0 0 0 0 0 0 0 0 0 ",
"a b 7 c d e f f f f f f f f f f f f f f f f f f f f f f f f f f ",
"g h i j k l m n n n n n n n n n n n n n n n n n n n n n n n n n ",
"o p q r s t u v w w w w w w w w w w w w w w w w w w w w w w w w ",
"x p q y z A B C D D D D D D D D D D D D D D D D D D D D D D D D ",
"E h q y F G H I J K J J K J K J K J K K J K K K J J J K J J J J ",
"L b M y F G N O P P P P P P P P P P P P P P P P P P P P P P P P ",
"Q b M y F G R P S T T T T T T T T T T T T T T T T T T T T T T T ",
"Q b M y F G U S V W X X X X X X X X X X X X X X X X X X X X X X ",
"Q b M y F G U Y W X X X X X X X X X X X X X X X X X X X X X X X ",
"Q b M y F G U Y X X X X X X X X X X X X X X X X X X X X X X X X ",
"Z b M y F G U Y X X X X X X X X X X X X X X X X X X X X X X X X ",
"Z b M y F G U Y X X X X X X X X X X X X X X X X X X X X X X X X ",
"Z b M y F G U Y X X X X X X X X X X X X X X X X X X X X X X X X ",
"Z b M y F G U Y X X X X X X X X X X X X X X X X X X X X X X X X ",
"Z b M y F G U Y X X X X X X X X X X X X X X X X X X X X X X X X ",
"Z b M y F G U Y X X X X X X X X X X X X X X X X X X X X X X X X ",
"L ` i y F G U  .W X X X X X X X X X X X X X X X X X X X X X X X ",
"..h q y F G U +.@.#.W W W W W W W W W W W W W W W W W W W W W W ",
"$.%.q y F G R P &.S S S S S S S S S S S S S S S S S S S S S S S ",
"*.=.q y F G N -.;.;.;.;.;.;.;.;.;.;.;.;.;.;.;.;.;.;.;.;.;.;.;.;.",
">.h q y z G ,.I '.'.'.'.'.'.'.'.'.'.'.'.'.'.'.'.'.'.'.'.'.'.'.'.",
"L b M y z ).!.~.~.~.~.~.~.~.~.~.~.~.~.~.~.~.~.~.~.~.~.~.~.~.~.~.",
"{.].M ^./.(._.:.<.<.<.<.<.<.<.<.<.<.<.<.<.<.<.<.<.<.<.<.<.<.<.<.",
"Q ].M [.}.|.1.2.2.2.2.2.2.2.2.2.2.2.2.2.2.2.2.2.2.2.2.2.2.2.2.2.",
"3.].7 4.5.6.7.8.8.8.8.8.8.8.8.8.8.8.8.8.8.8.8.8.8.8.8.8.8.8.8.8.",
"9.0.7 a.b.c.d.e.e.e.e.e.e.e.e.e.e.e.e.e.e.e.e.e.e.e.e.e.e.e.e.e.",
"f.g.h.i.j.k.l.m.n.n.n.n.n.n.k.k.k.k.k.k.n.n.o.n.n.n.n.n.n.n.k.k.",
"p.q.r.s.t.r.u.u.r.v.v.v.v.t.s.s.s.s.s.t.v.w.x.w.v.v.v.v.v.t.s.s."};
