/* XPM */
static char * wall_right_xpm[] = {
"32 32 20 1",
" 	c #171605",
".	c #181705",
"+	c #1C1A06",
"@	c #1F1D06",
"#	c #201E06",
"$	c #242108",
"%	c #252208",
"&	c #262308",
"*	c #282608",
"=	c #87813F",
"-	c #E6DC78",
";	c #EBE392",
">	c #EFE9A7",
",	c #EDE79F",
"'	c #E9E085",
")	c #D5C363",
"!	c #D6C465",
"~	c #DAC869",
"{	c #DBC96A",
"]	c #D9C767",
"            .+@@#$%%&***=-;>>,')",
"            .+@@#$%%&***=-;>>,'!",
"            .+@@#$%%&***=-;>>,'~",
"            .+@@#$%%&***=-;>>,'{",
"            .+@@#$%%&***=-;>>,'{",
"            .+@@#$%%&***=-;>>,'{",
"            .+@@#$%%&***=-;>>,'{",
"            .+@@#$%%&***=-;>>,'{",
"            .+@@#$%%&***=-;>>,'{",
"            .+@@#$%%&***=-;>>,'{",
"            .+@@#$%%&***=-;>>,'{",
"            .+@@#$%%&***=-;>>,'{",
"            .+@@#$%%&***=-;>>,'{",
"            .+@@#$%%&***=-;>>,'{",
"            .+@@#$%%&***=-;>>,'{",
"            .+@@#$%%&***=-;>>,'{",
"            .+@@#$%%&***=-;>>,'{",
"            .+@@#$%%&***=-;>>,'{",
"            .+@@#$%%&***=-;>>,'{",
"            .+@@#$%%&***=-;>>,'{",
"            .+@@#$%%&***=-;>>,'{",
"            .+@@#$%%&***=-;>>,'{",
"            .+@@#$%%&***=-;>>,'{",
"            .+@@#$%%&***=-;>>,'{",
"            .+@@#$%%&***=-;>>,'{",
"            .+@@#$%%&***=-;>>,'{",
"            .+@@#$%%&***=-;>>,'{",
"            .+@@#$%%&***=-;>>,'{",
"            .+@@#$%%&***=-;>>,'{",
"            .+@@#$%%&***=-;>>,']",
"            .+@@#$%%&***=-;>>,')",
"            .+@@#$%%&***=-;>>,'!"};
