/* XPM */
static char * wall_point_r_xpm[] = {
"32 32 116 2",
"  	c #DBCB77",
". 	c #DAC976",
"+ 	c #D7C674",
"@ 	c #D8C874",
"# 	c #D8C875",
"$ 	c #D7C472",
"% 	c #C8AB5C",
"& 	c #ECE499",
"* 	c #EBE499",
"= 	c #ECE49A",
"- 	c #EBE49A",
"; 	c #E6DB91",
"> 	c #D0B870",
", 	c #EAE39A",
"' 	c #EBE49B",
") 	c #EEE7A0",
"! 	c #EEE8A5",
"~ 	c #E9DF9C",
"{ 	c #D1BA76",
"] 	c #C6BE71",
"^ 	c #C7C072",
"/ 	c #D6CD7B",
"( 	c #EAE394",
"_ 	c #E9E09D",
": 	c #D0B976",
"< 	c #646030",
"[ 	c #6B6634",
"} 	c #A49D55",
"| 	c #E6DF8E",
"1 	c #D1B977",
"2 	c #2E2B0C",
"3 	c #3E3B17",
"4 	c #958F4C",
"5 	c #E5DE8E",
"6 	c #252208",
"7 	c #272408",
"8 	c #3A3714",
"9 	c #948E4C",
"0 	c #D2BA77",
"a 	c #232108",
"b 	c #242108",
"c 	c #393614",
"d 	c #E9DF9D",
"e 	c #201E06",
"f 	c #221F07",
"g 	c #E8DE9D",
"h 	c #CCB574",
"i 	c #1D1B06",
"j 	c #1E1C06",
"k 	c #1F1D06",
"l 	c #222008",
"m 	c #E7DE9C",
"n 	c #C9B271",
"o 	c #181705",
"p 	c #191705",
"q 	c #1A1905",
"r 	c #1D1C06",
"s 	c #221F08",
"t 	c #E8DF9D",
"u 	c #CFB775",
"v 	c #171605",
"w 	c #1C1A06",
"x 	c #1B1A06",
"y 	c #D2BB77",
"z 	c #D1B976",
"A 	c #191805",
"B 	c #211E06",
"C 	c #232008",
"D 	c #232007",
"E 	c #D0B876",
"F 	c #262308",
"G 	c #C9B371",
"H 	c #282609",
"I 	c #292709",
"J 	c #3A3814",
"K 	c #E8DE9C",
"L 	c #CBB472",
"M 	c #43401B",
"N 	c #4E4B21",
"O 	c #9A944F",
"P 	c #E6DE8E",
"Q 	c #9F9956",
"R 	c #A39C58",
"S 	c #C3BB6C",
"T 	c #E8E192",
"U 	c #E6DE90",
"V 	c #EDE69D",
"W 	c #E9E09C",
"X 	c #EDE69F",
"Y 	c #EDE79F",
"Z 	c #EDE6A0",
"` 	c #E8DE97",
" .	c #D1B974",
"..	c #E4D786",
"+.	c #E2D785",
"@.	c #E1D584",
"#.	c #E3D785",
"$.	c #E1D685",
"%.	c #E1D684",
"&.	c #DFCF7F",
"*.	c #CCB164",
"=.	c #CBAF5B",
"-.	c #CAAF5A",
";.	c #C5AA57",
">.	c #BFA452",
",.	c #C5AA56",
"'.	c #CAAE5A",
").	c #C9AD59",
"!.	c #C9AE59",
"~.	c #C2A755",
"{.	c #C2A754",
"].	c #C7AC58",
"^.	c #C9AD5A",
"/.	c #C9AE5A",
"(.	c #C8AB58",
"_.	c #C09C4D",
"                . + .                           @ #         $ % ",
"& & & & & & & & & * & & & & & & & & & & & & & & * * & & = - ; > ",
", , , , , , , , , , , , , , , , , , , , , , , , , , , ' ) ! ~ { ",
"] ] ] ] ] ] ] ] ] ] ] ] ] ] ] ] ] ] ] ] ] ] ] ] ] ] ^ / ( ! _ : ",
"< < < < < < < < < < < < < < < < < < < < < < < < < < [ } | ! _ 1 ",
"2 2 2 2 2 2 2 2 2 2 2 2 2 2 2 2 2 2 2 2 2 2 2 2 2 2 3 4 5 ! _ : ",
"6 6 6 6 6 6 6 6 6 6 6 6 6 6 6 6 6 6 6 6 6 6 6 6 6 7 8 9 5 ! _ 0 ",
"a a a a a a a a a a a a a a a a a a a a a a a a b 6 c 9 5 ! d 1 ",
"e e e e e e e e e e e e e e e e e e e e e e e e f b c 9 5 ! g h ",
"i i i i i i i i i i i i i i i i i i i i i i i j k l c 9 5 ! m n ",
"o o o o o o o o o o o o o o o o o o o o o o p q r s c 9 5 ! t u ",
"v v v v v v v v v v v v v v v v v v v v v v v o w s c 9 5 ! d 0 ",
"v v v v v v v v v v v v v v v v v v v v v v v v x s c 9 5 ! _ y ",
"v v v v v v v v v v v v v v v v v v v v v v v v x s c 9 5 ! _ y ",
"v v v v v v v v v v v v v v v v v v v v v v v v x s c 9 5 ! _ y ",
"v v v v v v v v v v v v v v v v v v v v v v v v x s c 9 5 ! _ y ",
"v v v v v v v v v v v v v v v v v v v v v v v v x s c 9 5 ! _ y ",
"v v v v v v v v v v v v v v v v v v v v v v v v x s c 9 5 ! _ y ",
"v v v v v v v v v v v v v v v v v v v v v v v v x s c 9 5 ! _ { ",
"v v v v v v v v v v v v v v v v v v v v v v v o x s c 9 5 ! _ z ",
"v v v v v v v v v v v v v v v v v v v v v v o A i s c 9 5 ! _ 1 ",
"x x x x x x x x x x x x x x x x x x x x x x x i k l c 9 5 ! _ { ",
"k k k k k k k k k k k k k k k k k k k k k k k k B b c 9 5 ! _ 0 ",
"C C C C D C C C D D D C D D C D C D C D C C D C b 6 c 9 5 ! d E ",
"6 6 6 6 6 6 6 6 6 6 6 6 6 6 6 6 6 6 6 6 6 6 6 6 6 F 8 9 5 ! m G ",
"H H H H H H H H H H H H H H H H H H H H H H H H H I J 9 5 ! K L ",
"M M M M M M M M M M M M M M M M M M M M M M M M M M N O P ! d z ",
"Q Q Q Q Q Q Q Q Q Q Q Q Q Q Q Q Q Q Q Q Q Q Q Q Q Q R S T ! _ y ",
"U U U U U U U U U U U U U U U U U U U U U U U U U U U T V ! W y ",
"X X X X X X X X X X X X X X X X X X X X X X X X X X X X Y Z `  .",
"..........+.@.+.........................#.$.%.#...........#.&.*.",
"=.=.=.=.-.;.>.,.'.-.).).!.-.=.=.=.=.=.=.).~.{.].-.^.).)./.=.(._."};
