/* XPM */
static char * wall_cul_xpm[] = {
"32 32 45 1",
" 	c #D3BB60",
".	c #DDCC75",
"+	c #E1D289",
"@	c #E2D38F",
"#	c #E0D18D",
"$	c #DCCD89",
"%	c #DDCE8A",
"&	c #E1D28E",
"*	c #DBC96A",
"=	c #E9E085",
"-	c #EDE79F",
";	c #EFE9A7",
">	c #EDE79E",
",	c #EBE492",
"'	c #EBE392",
")	c #E7DD79",
"!	c #E6DC78",
"~	c #B6AE5A",
"{	c #87813F",
"]	c #282608",
"^	c #272408",
"/	c #262408",
"(	c #DAC869",
"_	c #272508",
":	c #262308",
"<	c #252208",
"[	c #242208",
"}	c #242108",
"|	c #D6C465",
"1	c #221F07",
"2	c #211F07",
"3	c #D5C363",
"4	c #222007",
"5	c #201E06",
"6	c #1F1D06",
"7	c #1E1C06",
"8	c #D9C767",
"9	c #1D1B06",
"0	c #1A1805",
"a	c #191805",
"b	c #1D1C06",
"c	c #1A1905",
"d	c #171605",
"e	c #181705",
"f	c #1C1A06",
" .+@@@@@@@@@@@@@#$%&@@@@@@@@@@@@",
"*=-;;;;;;;;;;;;;;;;;;;;;;;;;;;;;",
"*=-;;;;;;;;;;;;;;;;;;;;;;;;;;;;;",
"*=-;;;;;;;;;;;;;;;;;;;;;;;;;;;;;",
"*=-;;;;;;;;;;;;;;;;;;;;;;;;;;;;;",
"*=-;;>,'''''''''''''''''''''''''",
"*=-;;,)!!!!!!!!!!!!!!!!!!!!!!!!!",
"*=-;;'!~{{{{{{{{{{{{{{{{{{{{{{{{",
"*=-;;'!{]]]]]]]]]]]]]]]]]]]]]]]]",
"*=-;;'!{]]]]]^//////////////////",
"(=-;;'!{]]]]_:<<<[}}}}}}}}}}}}}}",
"|=-;;'!{]]]^:<<<}122222222222222",
"3=-;;'!{]]]:<<<}4566777777777777",
"8=-;;'!{]]]:<<}1566690aaaaaaaaaa",
"*=-;;'!{]]]:<<}5667bcddddddddddd",
"*=-;;'!{]]]:<<}5669aeddddddddddd",
"*=-;;'!{]]]:<<}566fedddddddddddd",
"*=-;;'!{]]]:<<}566fedddddddddddd",
"*=-;;'!{]]]:<<}566fedddddddddddd",
"*=-;;'!{]]]:<<}566fedddddddddddd",
"*=-;;'!{]]]:<<}566fedddddddddddd",
"*=-;;'!{]]]:<<}566fedddddddddddd",
"*=-;;'!{]]]:<<}566fedddddddddddd",
"*=-;;'!{]]]:<<}566fedddddddddddd",
"*=-;;'!{]]]:<<}566fedddddddddddd",
"*=-;;'!{]]]:<<}566fedddddddddddd",
"*=-;;'!{]]]:<<}566fedddddddddddd",
"*=-;;'!{]]]:<<}566fedddddddddddd",
"*=-;;'!{]]]:<<}566fedddddddddddd",
"*=-;;'!{]]]:<<}566fedddddddddddd",
"*=-;;'!{]]]:<<}566fedddddddddddd",
"*=-;;'!{]]]:<<}566fedddddddddddd"};
