/* XPM */
static char * wall_solo_xpm[] = {
"32 32 194 2",
"  	c #D4BF71",
". 	c #E0D38A",
"+ 	c #E5D995",
"@ 	c #E5DA97",
"# 	c #E6DA97",
"$ 	c #E5D997",
"% 	c #E4D897",
"& 	c #E3D896",
"* 	c #E6D997",
"= 	c #E4D896",
"- 	c #E6DA96",
"; 	c #E3D68F",
"> 	c #DAC87B",
", 	c #C8AC5D",
"' 	c #D8C877",
") 	c #E8DE94",
"! 	c #EBE59F",
"~ 	c #EBE39F",
"{ 	c #EAE39F",
"] 	c #E9E29F",
"^ 	c #EAE29F",
"/ 	c #EBE49F",
"( 	c #EAE09A",
"_ 	c #E0D182",
": 	c #CBB261",
"< 	c #DAC879",
"[ 	c #E9DF94",
"} 	c #EBE49C",
"| 	c #E6E094",
"1 	c #DED78C",
"2 	c #DAD48A",
"3 	c #D9D389",
"4 	c #DAD38A",
"5 	c #DCD58B",
"6 	c #E3DC91",
"7 	c #EAE39A",
"8 	c #EAE299",
"9 	c #E1D383",
"0 	c #CBB161",
"a 	c #DAC878",
"b 	c #E9DE93",
"c 	c #E7E095",
"d 	c #D4CD80",
"e 	c #B4AD66",
"f 	c #A29D5B",
"g 	c #9E9959",
"h 	c #9D9859",
"i 	c #9E9859",
"j 	c #A09A5A",
"k 	c #AAA460",
"l 	c #C7C076",
"m 	c #E3DB8F",
"n 	c #EAE197",
"o 	c #E1D283",
"p 	c #CAB060",
"q 	c #E7DE93",
"r 	c #E4DD93",
"s 	c #C5BE75",
"t 	c #8B864B",
"u 	c #635F31",
"v 	c #58552A",
"w 	c #57532A",
"x 	c #57522A",
"y 	c #56522A",
"z 	c #58542A",
"A 	c #5C592C",
"B 	c #77723D",
"C 	c #AFA864",
"D 	c #DDD68B",
"E 	c #E9E096",
"F 	c #CBB060",
"G 	c #D6C576",
"H 	c #E6DE93",
"I 	c #E3DC92",
"J 	c #C1BA72",
"K 	c #7D7843",
"L 	c #46431E",
"M 	c #322F11",
"N 	c #2E2B0F",
"O 	c #2D2A0E",
"P 	c #2C290E",
"Q 	c #2B290E",
"R 	c #2E2B0E",
"S 	c #302D0F",
"T 	c #3A3816",
"U 	c #625E31",
"V 	c #A6A060",
"W 	c #DBD48A",
"X 	c #E8E096",
"Y 	c #E6DE92",
"Z 	c #E3DB92",
"` 	c #C0B972",
" .	c #7B7642",
"..	c #413E1B",
"+.	c #29260B",
"@.	c #252208",
"#.	c #222007",
"$.	c #201E06",
"%.	c #1E1D06",
"&.	c #1D1C06",
"*.	c #1D1B06",
"=.	c #1E1C06",
"-.	c #221F07",
";.	c #242108",
">.	c #272409",
",.	c #343112",
"'.	c #5F5B2F",
").	c #A59F5F",
"!.	c #7B7541",
"~.	c #413D1B",
"{.	c #29260A",
"].	c #232108",
"^.	c #1A1905",
"/.	c #181705",
"(.	c #181605",
"_.	c #171605",
":.	c #1A1805",
"<.	c #1F1D06",
"[.	c #232008",
"}.	c #262309",
"|.	c #333011",
"1.	c #E0D283",
"2.	c #C9AF5F",
"3.	c #D8C878",
"4.	c #191705",
"5.	c #1B1A06",
"6.	c #232007",
"7.	c #262308",
"8.	c #E7E096",
"9.	c #DED182",
"0.	c #C5AC5D",
"a.	c #CCB262",
"b.	c #D9C878",
"c.	c #CDB362",
"d.	c #CCB261",
"e.	c #CBB160",
"f.	c #D7C677",
"g.	c #DFD182",
"h.	c #C7AD5E",
"i.	c #C4AB5C",
"j.	c #DFD282",
"k.	c #C8AE5E",
"l.	c #E0D386",
"m.	c #DED186",
"n.	c #CDC075",
"o.	c #B1A461",
"p.	c #A39758",
"q.	c #A09456",
"r.	c #A09356",
"s.	c #9F9255",
"t.	c #9D9054",
"u.	c #9E9155",
"v.	c #A09256",
"w.	c #A09257",
"x.	c #9F9256",
"y.	c #9E9356",
"z.	c #9F9356",
"A.	c #9F9355",
"B.	c #A09355",
"C.	c #A79B5A",
"D.	c #BFB36B",
"E.	c #DACE81",
"F.	c #E1D488",
"G.	c #DDCD7D",
"H.	c #D1BB6B",
"I.	c #DDCE80",
"J.	c #E1D387",
"K.	c #DFD386",
"L.	c #DED285",
"M.	c #DFD385",
"N.	c #DFD285",
"O.	c #E1D386",
"P.	c #E2D386",
"Q.	c #DDCE82",
"R.	c #E0D387",
"S.	c #E6DE94",
"T.	c #E5DE93",
"U.	c #E8DF94",
"V.	c #EAE29A",
"W.	c #E6DC95",
"X.	c #D7CA7F",
"Y.	c #D3CC84",
"Z.	c #D4CC84",
"`.	c #D5CE85",
" +	c #DAD388",
".+	c #E4DD92",
"++	c #EAE49C",
"@+	c #E8DF9B",
"#+	c #C0B26B",
"$+	c #A19A5C",
"%+	c #A19B5C",
"&+	c #B7B06A",
"*+	c #D4CD82",
"=+	c #E7E198",
"  . + @ @ @ # $ % & $ * # # # # # # # # # # # $ = = $ # - ; > , ",
"' ) ! ! ~ { { ] ] ] ] ^ { { { { { { { { { { { ] ] ] ^ / ! ( _ : ",
"< [ } | 1 2 3 3 3 3 3 3 3 3 3 3 3 3 3 3 3 3 3 3 3 4 5 6 7 8 9 0 ",
"a b c d e f g h h h h h h h h h h h h h h h h h i j k l m n o p ",
"' q r s t u v w x x y y y y y y y y y y y x x w z A B C D E o F ",
"G H I J K L M N O P Q Q Q Q Q Q Q Q Q Q Q P O R S T U V W X o 0 ",
"G Y Z `  ...+.@.#.$.%.&.*.*.*.*.*.*.*.*.=.$.-.;.>.,.'.).W X o : ",
"' H Z ` !.~.{.].$.=.^./.(._._._._._.(./.:.*.<.[.}.|.'.).W X 1.2.",
"3.q Z ` !.~.{.].$.*.4._._._._._._._._._./.5.<.6.7.|.'.).W 8.9.0.",
"3.q Z ` !.~.{.].$.*./._._._._._._._._._._.5.<.[.}.|.'.).W 8.9.0.",
"3.q Z ` !.~.{.].$.*./._._._._._._._._._._.5.<.[.}.|.'.).W X 1.p ",
"3.q Z ` !.~.{.].$.*./._._._._._._._._._._.5.<.6.7.|.'.).W X 9 a.",
"b.q Z ` !.~.{.].$.*./._._._._._._._._._._.5.<.[.}.|.'.).W X 9 c.",
"< q Z ` !.~.{.].$.*./._._._._._._._._._._.5.<.6.7.|.'.).W X 9 c.",
"< q Z ` !.~.{.].$.*./._._._._._._._._._._.5.<.[.}.|.'.).W X 9 c.",
"< q Z ` !.~.{.].$.*./._._._._._._._._._._.5.<.6.7.|.'.).W X 9 c.",
"< q Z ` !.~.{.].$.*./._._._._._._._._._._.5.<.[.}.|.'.).W X 9 c.",
"< q Z ` !.~.{.].$.*./._._._._._._._._._._.5.<.6.7.|.'.).W X 9 d.",
"< q Z ` !.~.{.].$.*./._._._._._._._._._._.5.<.6.7.|.'.).W X o e.",
"b.q Z ` !.~.{.].$.*./._._._._._._._._._._.5.<.[.}.|.'.).W X o F ",
"f.H Z ` !.~.{.].$.*./._._._._._._._._._._.5.<.6.7.|.'.).W X o F ",
"G Y Z ` !.~.{.].$.*./._._._._._._._._._._.5.<.6.7.|.'.).W X o d.",
"f.H Z ` !.~.{.].$.*./._._._._._._._._._._.5.<.6.7.|.'.).W X o 0 ",
"3.q Z ` !.~.{.].$.*./._._._._._._._._._._.5.<.[.}.|.'.).W X g.h.",
"b.q Z ` !.~.{.].$.*./._._._._._._._._._._.5.<.[.}.|.'.).W X 9.i.",
"3.q Z ` !.~.{.].$.*./._._._._._._._._._._.5.<.[.}.|.'.).W X j.k.",
"3.q Z ` !.~.{.].$.*./._._._._._._._._._._.5.<.6.7.|.'.).W X 9 : ",
"b.l.m.n.o.p.q.r.r.s.t.t.u.v.w.w.w.w.w.v.x.y.z.z.A.B.C.D.E.F.G.H.",
"I.J.J.l.l.l.l.l.l.K.L.L.K.l.J.J.J.J.J.l.l.l.l.l.K.M.L.N.O.P.J.Q.",
"R.S.S.S.S.S.S.S.S.S.T.T.S.S.S.S.S.S.S.S.S.S.S.S.S.T.T.S.U.n V.W.",
"X.Y.Y.Y.Y.Y.Y.Y.Y.Y.Y.Y.Y.Y.Y.Y.Y.Y.Y.Y.Y.Y.Y.Y.Y.Y.Z.`. +.+++@+",
"#+$+$+$+$+$+$+$+$+$+$+$+$+$+$+$+$+$+$+$+$+$+$+$+$+$+%+).&+*+=+@+"};
