/* XPM */
static char * wall_down_xpm[] = {
"32 32 98 2",
"  	c #CEC88C",
". 	c #EFE9A7",
"+ 	c #EFE9A5",
"@ 	c #EAE28B",
"# 	c #E5DB74",
"$ 	c #DED468",
"% 	c #DCD264",
"& 	c #E2D86F",
"* 	c #E2D86E",
"= 	c #E2D76E",
"- 	c #DCD269",
"; 	c #D9CF65",
"> 	c #DED46B",
", 	c #DFD56B",
"' 	c #D9CF66",
") 	c #DBD168",
"! 	c #E1D76D",
"~ 	c #D9CE5D",
"{ 	c #D8CD5C",
"] 	c #C5BC4A",
"^ 	c #BAB13F",
"/ 	c #CCC251",
"( 	c #CFC453",
"_ 	c #BCB341",
": 	c #C3B948",
"< 	c #D5CB5A",
"[ 	c #D5CA56",
"} 	c #D3C854",
"| 	c #BCB23D",
"1 	c #ADA32E",
"2 	c #C4BA46",
"3 	c #C7BD49",
"4 	c #B0A631",
"5 	c #B9AF3A",
"6 	c #D0C652",
"7 	c #C5BB46",
"8 	c #CDC24E",
"9 	c #D2C753",
"0 	c #C9BF4B",
"a 	c #C8BE4A",
"b 	c #D1C652",
"c 	c #AEA530",
"d 	c #C1B742",
"e 	c #CEC44F",
"f 	c #B6AC38",
"g 	c #CCC14D",
"h 	c #BCB23E",
"i 	c #CFC450",
"j 	c #C5BA46",
"k 	c #C9BE4A",
"l 	c #C3B945",
"m 	c #C1B743",
"n 	c #D3C955",
"o 	c #D4C955",
"p 	c #C8BE49",
"q 	c #B1A733",
"r 	c #BAB03B",
"s 	c #D0C551",
"t 	c #C4BA45",
"u 	c #B8AE39",
"v 	c #ACA32E",
"w 	c #B0A732",
"x 	c #CABF4B",
"y 	c #B2A934",
"z 	c #A89F2A",
"A 	c #A9A02B",
"B 	c #BBB13C",
"C 	c #BEB43F",
"D 	c #B7AD39",
"E 	c #BDB33F",
"F 	c #B8AE3A",
"G 	c #ABA12D",
"H 	c #B2A834",
"I 	c #CDC34F",
"J 	c #B6AC37",
"K 	c #ABA22D",
"L 	c #C6BC47",
"M 	c #B1A732",
"N 	c #BEB440",
"O 	c #AAA12C",
"P 	c #AFA531",
"Q 	c #B6AD38",
"R 	c #B8AF3A",
"S 	c #CCC24D",
"T 	c #C2B844",
"U 	c #CBC04C",
"V 	c #C0B642",
"W 	c #B5AB36",
"X 	c #C7BD48",
"Y 	c #CEC34F",
"Z 	c #B4AA35",
"` 	c #AFA631",
" .	c #B1A833",
"..	c #BDB33E",
"+.	c #B7AD38",
"@.	c #C5BB47",
"#.	c #C6BC48",
"$.	c #BFB540",
"                                                                ",
". . . . . . . . . . . . . . . . . . . . . . . . . . . . . . . . ",
". . . . . . . . . . . . . . . . . . . . . . . . . . . . . . . . ",
". . . . . . . . . . . . . . . . . . . . . . . . . . . . . . . . ",
". . . . . . . . . . . . . . . . . . . . . . . . . . . . . . . . ",
". . . . . . . . . . . . . . . . . . . . . . . . . . . . . . . . ",
"+ + + + + + + + + + + + + + + + + + + + + + + + + + + + + + + + ",
"@ @ @ @ @ @ @ @ @ @ @ @ @ @ @ @ @ @ @ @ @ @ @ @ @ @ @ @ @ @ @ @ ",
"# # # # # # # # # # # # # # # # # # # # # # # # # # # # # # # # ",
"$ $ $ $ $ $ $ $ $ $ $ $ $ $ $ $ $ $ $ $ $ $ $ $ $ $ $ $ $ $ $ $ ",
"% % % % % % % % % % % % % % % % % % % % % % % % % % % % % % % % ",
"& & & & & & & & & & & & & & & & & & & & & & & & & & & & & & & & ",
"* * = - ; > * * * * * * * * * * * = - ; > * * * * , ' ) ! * * * ",
"~ ~ { ] ^ / ~ ~ ~ ~ ~ ~ ~ ~ ~ ~ ~ { ] ^ / ~ ~ ~ ~ ( _ : < ~ ~ ~ ",
"[ [ } | 1 2 [ [ [ [ [ [ [ [ [ [ [ } | 1 2 [ [ [ [ 3 4 5 6 [ [ [ ",
"[ [ } | 1 2 [ [ [ [ [ [ [ [ [ [ [ } | 1 2 [ [ [ [ 3 4 5 6 [ [ [ ",
"7 8 } | 1 2 [ [ [ [ [ [ [ [ [ [ [ } | 1 2 9 0 a b 3 4 5 6 [ [ [ ",
"c d } | 1 2 [ [ [ [ [ [ [ [ [ [ [ } | 1 2 e 5 f g 3 4 5 6 [ [ [ ",
"h a } | 1 2 [ [ [ [ i j k } [ [ [ } | 1 2 b l m i 3 4 5 6 [ [ [ ",
"n o } | 1 2 [ [ [ [ p q r b [ [ [ } | 1 2 [ o o [ 3 4 5 6 [ [ [ ",
"[ [ } | 1 2 [ [ s t u v w h a o [ } | 1 2 [ [ [ [ 3 4 5 6 [ [ x ",
"n o } | 1 2 [ o 0 y z A A z B 9 o } | 1 2 [ o o [ 3 4 5 6 o n C ",
"h a } | 1 2 b l D 1 4 E F G w B a } | 1 2 b l m i 3 4 5 6 x h H ",
"c d } | 1 2 I J A K 5 e L M G z N } | 1 2 e 5 f g 3 4 5 6 m O O ",
"7 8 } | 1 2 I J P C 0 9 i L F A N } | 1 2 9 0 a b 3 4 5 6 m O Q ",
"[ [ } | 1 2 i B R S } i s o j q T } | 1 2 [ [ [ [ 3 4 5 6 j q T ",
"[ [ } | 1 2 } g U 9 g B m 9 i p e } | 1 2 [ [ [ [ 3 4 5 6 i p e ",
"U s } | 1 2 [ [ } 8 V c W X i [ [ } | 1 2 } Y 8 } 3 4 5 6 [ [ s ",
"Z t } | 1 2 [ [ 8 B ` O v  .m o [ } | 1 2 i ..B 8 3 4 5 6 [ [ t ",
"+.@.} | 1 2 } g V ` z z z z J #.e } | 1 2 s $...Y 3 4 5 6 i p u ",
"Y b } | 1 2 i B c O z z z z K ` T } | 1 2 o s i } 3 4 5 6 j q v ",
"[ [ } | 1 2 I J z z z z z z z z N } | 1 2 [ [ [ [ 3 4 5 6 m O z "};
