/* XPM */
static char * wall_point_u_xpm[] = {
"32 32 118 2",
"  	c #E0DA9A",
". 	c #DFD99A",
"+ 	c #E0DA9B",
"@ 	c #D7D193",
"# 	c #CEC88C",
"$ 	c #DED896",
"% 	c #EFE9A6",
"& 	c #EFE9A7",
"* 	c #F0EAA8",
"= 	c #DED89A",
"- 	c #DED899",
"; 	c #EFE9A5",
"> 	c #DCD58B",
", 	c #EAE28B",
"' 	c #D9D180",
") 	c #E5DB74",
"! 	c #D5CD7B",
"~ 	c #DED468",
"{ 	c #D4CC79",
"] 	c #DCD264",
"^ 	c #D7CF7E",
"/ 	c #E2D86F",
"( 	c #E2D86E",
"_ 	c #E2D76E",
": 	c #DCD269",
"< 	c #D9CF65",
"[ 	c #DED46B",
"} 	c #DFD56B",
"| 	c #D9CF66",
"1 	c #DBD168",
"2 	c #E1D76D",
"3 	c #D3CA77",
"4 	c #D9CE5D",
"5 	c #D8CD5C",
"6 	c #C5BC4A",
"7 	c #BAB13F",
"8 	c #CCC251",
"9 	c #CFC453",
"0 	c #BCB341",
"a 	c #C3B948",
"b 	c #D5CB5A",
"c 	c #D1C874",
"d 	c #D5CA56",
"e 	c #D3C854",
"f 	c #BCB23D",
"g 	c #ADA32E",
"h 	c #C4BA46",
"i 	c #C7BD49",
"j 	c #B0A631",
"k 	c #B9AF3A",
"l 	c #D0C652",
"m 	c #D2C753",
"n 	c #C9BF4B",
"o 	c #C8BE4A",
"p 	c #D1C652",
"q 	c #CEC44F",
"r 	c #B6AC38",
"s 	c #CCC14D",
"t 	c #D0C774",
"u 	c #C3B945",
"v 	c #C1B743",
"w 	c #CFC450",
"x 	c #CFC673",
"y 	c #D4C955",
"z 	c #C4BC6D",
"A 	c #CABF4B",
"B 	c #BBB469",
"C 	c #BBB13C",
"D 	c #D3C955",
"E 	c #BEB43F",
"F 	c #BCB569",
"G 	c #B0A732",
"H 	c #BCB23E",
"I 	c #B2A834",
"J 	c #BFB769",
"K 	c #ABA12D",
"L 	c #A89F2A",
"M 	c #BEB440",
"N 	c #AAA12C",
"O 	c #E3DD9C",
"P 	c #CEC673",
"Q 	c #B8AE3A",
"R 	c #A9A02B",
"S 	c #B6AD38",
"T 	c #EBE4A1",
"U 	c #DDD57D",
"V 	c #C5BA46",
"W 	c #B1A733",
"X 	c #C2B844",
"Y 	c #EFE8A4",
"Z 	c #E1D881",
"` 	c #C8BE49",
" .	c #DCD481",
"..	c #CEC34F",
"+.	c #CDC24E",
"@.	c #D0C551",
"#.	c #D3CC7E",
"$.	c #BDB33E",
"%.	c #C4BA45",
"&.	c #EEE8A3",
"*.	c #EEE8A4",
"=.	c #CFC87B",
"-.	c #B6AC37",
";.	c #C6BC48",
">.	c #BFB540",
",.	c #B8AE39",
"'.	c #EBE492",
").	c #EBE493",
"!.	c #CDC56E",
"~.	c #ABA22D",
"{.	c #AFA631",
"].	c #ACA32E",
"^.	c #E2D577",
"/.	c #E2D578",
"(.	c #E2D477",
"_.	c #E0D376",
":.	c #DFD275",
"<.	c #C7BB59",
"  . . . + @ # # # # # # # # # # # # # # # # # # $   . . . + @ # ",
"% & & & * . = & & & & & & & & & & & & & & & & & & % & & & * . = ",
"% & & & * . = & & & & & & & & & & & & & & & & & & % & & & * . = ",
"% & & & * . = & & & & & & & & & & & & & & & & & & % & & & * . = ",
"% & & & * . = & & & & & & & & & & & & & & & & & & % & & & * . = ",
"% & & & * . = & & & & & & & & & & & & & & & & & & % & & & * . = ",
"% & & & * . - ; ; ; ; ; ; ; ; ; ; ; ; ; ; ; ; ; ; % & & & * . - ",
"% & & & * . > , , , , , , , , , , , , , , , , , , % & & & * . > ",
"% & & & * . ' ) ) ) ) ) ) ) ) ) ) ) ) ) ) ) ) ) ) % & & & * . ' ",
"% & & & * . ! ~ ~ ~ ~ ~ ~ ~ ~ ~ ~ ~ ~ ~ ~ ~ ~ ~ ~ % & & & * . ! ",
"% & & & * . { ] ] ] ] ] ] ] ] ] ] ] ] ] ] ] ] ] ] % & & & * . { ",
"% & & & * . ^ / / / / / / / / / / / / / / / / / / % & & & * . ^ ",
"% & & & * . ^ ( ( ( _ : < [ ( ( ( ( } | 1 2 ( ( ( % & & & * . ^ ",
"% & & & * . 3 4 4 4 5 6 7 8 4 4 4 4 9 0 a b 4 4 4 % & & & * . 3 ",
"% & & & * . c d d d e f g h d d d d i j k l d d d % & & & * . c ",
"% & & & * . c d d d e f g h d d d d i j k l d d d % & & & * . c ",
"% & & & * . c d d d e f g h m n o p i j k l d d d % & & & * . c ",
"% & & & * . c d d d e f g h q k r s i j k l d d d % & & & * . c ",
"% & & & * . t d d d e f g h p u v w i j k l d d d % & & & * . t ",
"% & & & * . x d d d e f g h d y y d i j k l d d d % & & & * . x ",
"% & & & * . z o y d e f g h d d d d i j k l d d A % & & & * . z ",
"% & & & * . B C m y e f g h d y y d i j k l y D E % & & & * . B ",
"% & & & * . F G C o e f g h p u v w i j k l A H I % & & & * . F ",
"% & & & * . J K L M e f g h q k r s i j k l v N N % & & & * . J ",
"% & & & & O P Q R M e f g h m n o p i j k l v N S % & & & & O P ",
"% & & & & T U V W X e f g h d d d d i j k l V W X % & & & & T U ",
"% & & & & Y Z w ` q e f g h d d d d i j k l w ` q % & & & & Y Z ",
"% & & & & %  .w d d e f g h e ..+.e i j k l d d @.% & & & & %  .",
"% & & & & & #.v y d e f g h w $.C +.i j k l d d %.% & & & & & #.",
"&.*.*.*.*.*.=.-.;.q e f g h @.>.$...i j k l w ` ,.&.*.*.*.*.*.=.",
"'.).).).).).!.~.{.X e f g h y @.w e i j k l V W ].'.).).).).).!.",
"^././.(._.:.<.L L M e f g h d d d d i j k l v N L ^././.(._.:.<."};
