/* XPM */
static char * wall_cdr_xpm[] = {
"32 32 135 2",
"  	c #CEC88C",
". 	c #DED896",
"+ 	c #EEE79F",
"@ 	c #EEE8A3",
"# 	c #EFE9A7",
"$ 	c #EDE79F",
"% 	c #E9E085",
"& 	c #D5C363",
"* 	c #D6C465",
"= 	c #DAC869",
"- 	c #DBC96A",
"; 	c #EFE9A5",
"> 	c #EDE69D",
", 	c #E9E084",
"' 	c #EAE28B",
") 	c #E9E188",
"! 	c #E7DE7C",
"~ 	c #E5DB74",
"{ 	c #DAC868",
"] 	c #DED468",
"^ 	c #D5C35F",
"/ 	c #DCD264",
"( 	c #D3C25C",
"_ 	c #E2D86F",
": 	c #D8C665",
"< 	c #E2D86E",
"[ 	c #E2D76E",
"} 	c #DCD269",
"| 	c #D9CF65",
"1 	c #DED46B",
"2 	c #DFD56B",
"3 	c #D9CF66",
"4 	c #DBD168",
"5 	c #E1D76D",
"6 	c #DED46C",
"7 	c #D0C764",
"8 	c #C4B359",
"9 	c #D9CE5D",
"0 	c #D8CD5C",
"a 	c #C5BC4A",
"b 	c #BAB13F",
"c 	c #CCC251",
"d 	c #CFC453",
"e 	c #BCB341",
"f 	c #C3B948",
"g 	c #D5CB5A",
"h 	c #CBC156",
"i 	c #9E963C",
"j 	c #908132",
"k 	c #D5CA56",
"l 	c #D3C854",
"m 	c #BCB23D",
"n 	c #ADA32E",
"o 	c #C4BA46",
"p 	c #C7BD49",
"q 	c #B0A631",
"r 	c #B9AF3A",
"s 	c #D0C652",
"t 	c #C2B84C",
"u 	c #87812B",
"v 	c #796B22",
"w 	c #D2C753",
"x 	c #C9BF4B",
"y 	c #C8BE4A",
"z 	c #D1C652",
"A 	c #CEC44F",
"B 	c #B6AC38",
"C 	c #CCC14D",
"D 	c #CFC450",
"E 	c #C5BA46",
"F 	c #C9BE4A",
"G 	c #C3B945",
"H 	c #C1B743",
"I 	c #D4C955",
"J 	c #CABF4B",
"K 	c #CEC34F",
"L 	c #C8BE49",
"M 	c #B1A733",
"N 	c #BAB03B",
"O 	c #D3C955",
"P 	c #BCB23E",
"Q 	c #AEA530",
"R 	c #C5BB46",
"S 	c #D0C551",
"T 	c #C4BA45",
"U 	c #B8AE39",
"V 	c #ACA32E",
"W 	c #B0A732",
"X 	c #BEB43F",
"Y 	c #B2A834",
"Z 	c #AAA12C",
"` 	c #B6AD38",
" .	c #B0A639",
"..	c #817A24",
"+.	c #B2A934",
"@.	c #A89F2A",
"#.	c #A9A02B",
"$.	c #BBB13C",
"%.	c #9D9527",
"&.	c #7A741D",
"*.	c #B7AD39",
"=.	c #BDB33F",
"-.	c #B8AE3A",
";.	c #ABA12D",
">.	c #BFB540",
",.	c #B1A833",
"'.	c #B6AC37",
").	c #ABA22D",
"!.	c #C6BC47",
"~.	c #B1A732",
"{.	c #BEB440",
"].	c #BBB23D",
"^.	c #A1982B",
"/.	c #7B751F",
"(.	c #AFA531",
"_.	c #CBC04C",
":.	c #B5AB3E",
"<.	c #827C26",
"[.	c #B8AF3A",
"}.	c #CCC24D",
"|.	c #C2B844",
"1.	c #CDC24E",
"2.	c #C0B642",
"3.	c #B5AB36",
"4.	c #C7BD48",
"5.	c #BAB043",
"6.	c #847E28",
"7.	c #AFA631",
"8.	c #BDB33E",
"9.	c #A69D30",
"0.	c #7D7721",
"a.	c #C6BC48",
"b.	c #77691F",
"c.	c #73641B",
"d.	c #74661D",
"                                                . + @ # # $ % & ",
"# # # # # # # # # # # # # # # # # # # # # # # # # # # # # $ % * ",
"# # # # # # # # # # # # # # # # # # # # # # # # # # # # # $ % = ",
"# # # # # # # # # # # # # # # # # # # # # # # # # # # # # $ % - ",
"# # # # # # # # # # # # # # # # # # # # # # # # # # # # # $ % - ",
"# # # # # # # # # # # # # # # # # # # # # # # # # # # # # $ % - ",
"; ; ; ; ; ; ; ; ; ; ; ; ; ; ; ; ; ; ; ; ; ; ; ; ; ; ; ; ; > , - ",
"' ' ' ' ' ' ' ' ' ' ' ' ' ' ' ' ' ' ' ' ' ' ' ' ' ' ' ' ' ) ! - ",
"~ ~ ~ ~ ~ ~ ~ ~ ~ ~ ~ ~ ~ ~ ~ ~ ~ ~ ~ ~ ~ ~ ~ ~ ~ ~ ~ ~ ~ ~ ~ { ",
"] ] ] ] ] ] ] ] ] ] ] ] ] ] ] ] ] ] ] ] ] ] ] ] ] ] ] ] ] ] ] ^ ",
"/ / / / / / / / / / / / / / / / / / / / / / / / / / / / / / / ( ",
"_ _ _ _ _ _ _ _ _ _ _ _ _ _ _ _ _ _ _ _ _ _ _ _ _ _ _ _ _ _ _ : ",
"< < < < < < < < < < [ } | 1 < < < < 2 3 4 5 < < < < < < < 6 7 8 ",
"9 9 9 9 9 9 9 9 9 9 0 a b c 9 9 9 9 d e f g 9 9 9 9 9 9 9 h i j ",
"k k k k k k k k k k l m n o k k k k p q r s k k k k k k k t u v ",
"k k k k k k k k k k l m n o k k k k p q r s k k k k k k k t u v ",
"k k k k k k k k k k l m n o w x y z p q r s k k k k k k k t u v ",
"k k k k k k k k k k l m n o A r B C p q r s k k k k k k k t u v ",
"k k k D E F l k k k l m n o z G H D p q r s k k k I J G K t u v ",
"k k k L M N z k k k l m n o k I I k p q r s k k k O P Q R t u v ",
"k S T U V W P y I k l m n o k k k k p q r s k k J X Y Z `  ...v ",
"I x +.@.#.#.@.$.w I l m n o k I I k p q r s I O X @.#.#.#.%.&.v ",
"G *.n q =.-.;.W $.y l m n o z G H D p q r s J P Y #.` >.,.%.&.v ",
"'.#.).r A !.~.;.@.{.l m n o A r B C p q r s H Z Z Q G z ].^./.v ",
"'.(.X x w D !.-.#.{.l m n o w x y z p q r s H Z ` R K l _.:.<.v ",
"$.[.}.l D S I E M |.l m n o k k k k p q r s E M |.k z A w t u v ",
"C _.w C $.H w D L A l m n o k k k k p q r s D L A I G r x t u v ",
"k l 1.2.Q 3.4.D k k l m n o l K 1.l p q r s k k S x *.).X 5.6.v ",
"k 1.$.7.Z V ,.H I k l m n o D 8.$.1.p q r s k k T +.n #.(.9.0.v ",
"C 2.7.@.@.@.@.'.a.A l m n o S >.8.K p q r s D L U @.@.@.@.%.&.b.",
"$.Q Z @.@.@.@.).7.|.l m n o I S D l p q r s E M V @.@.@.@.%.&.c.",
"'.@.@.@.@.@.@.@.@.{.l m n o k k k k p q r s H Z @.@.@.@.@.%.&.d."};
