/* XPM */
static char * wall_ud_xpm[] = {
"32 32 58 1",
" 	c #C4AB5B",
".	c #C9AF5E",
"+	c #CCB160",
"@	c #CDB260",
"#	c #CCB15F",
"$	c #CBB05E",
"%	c #CAAF5E",
"&	c #CBAF5E",
"*	c #CBB15F",
"=	c #CAB05F",
"-	c #C7AC5C",
";	c #C3A959",
">	c #C7AD5C",
",	c #CDB160",
"'	c #CCB05F",
")	c #CAAF5F",
"!	c #CBB05F",
"~	c #C9AE5E",
"{	c #C4AA5A",
"]	c #C4AB5A",
"^	c #DFD283",
"/	c #E1D384",
"(	c #E2D484",
"_	c #E2D384",
":	c #E0D383",
"<	c #E1D383",
"[	c #E9E299",
"}	c #EAE299",
"|	c #DED78C",
"1	c #A49E5D",
"2	c #58542A",
"3	c #2F2C0E",
"4	c #252208",
"5	c #232008",
"6	c #232007",
"7	c #1F1D06",
"8	c #1B1A06",
"9	c #171605",
"0	c #181705",
"a	c #1D1B06",
"b	c #201E06",
"c	c #232108",
"d	c #272409",
"e	c #3B3716",
"f	c #75703D",
"g	c #C2BA72",
"h	c #E5DD94",
"i	c #E8E095",
"j	c #E9E095",
"k	c #E8E094",
"l	c #D9C978",
"m	c #DAC978",
"n	c #DAC979",
"o	c #D8C777",
"p	c #D6C576",
"q	c #D7C776",
"r	c #D7C676",
"s	c #D9C877",
" .+@@@@@#$%&*=-;>*@@@@@,'%)!*~{]",
"^/(((((((___(_:^:(((((((_/__(<^^",
"[}}}}}}}}}}}}}}}}}}}}}}}}}}}}}[[",
"||||||||||||||||||||||||||||||||",
"11111111111111111111111111111111",
"22222222222222222222222222222222",
"33333333333333333333333333333333",
"44444444444444444444444444444444",
"55656565665666555655555656556555",
"77777777777777777777777777777777",
"88888888888888888888888888888888",
"99999999999999999999999999999999",
"99999999999999999999999999999999",
"99999999999999999999999999999999",
"99999999999999999999999999999999",
"99999999999999999999999999999999",
"99999999999999999999999999999999",
"99999999999999999999999999999999",
"99999999999999999999999999999999",
"99999999999999999999999999999999",
"99999999999999999999999999999999",
"00000000000000000000000000000000",
"aaaaaaaaaaaaaaaaaaaaaaaaaaaaaaaa",
"bbbbbbbbbbbbbbbbbbbbbbbbbbbbbbbb",
"cccccccccccccccccccccccccccccccc",
"dddddddddddddddddddddddddddddddd",
"eeeeeeeeeeeeeeeeeeeeeeeeeeeeeeee",
"ffffffffffffffffffffffffffffffff",
"gggggggggggggggggggggggggggggggg",
"hhhhhhhhhhhhhhhhhhhhhhhhhhhhhhhh",
"iiiijjjjjjiikiiiiiiijjjjjjiikiii",
"lllmnnnnnmlopolllllmnnnnnmlqrsml"};
