/* XPM */
static char * wall_point_d_xpm[] = {
"32 32 120 2",
"  	c #CCB15E",
". 	c #E3D585",
"+ 	c #ECE49C",
"@ 	c #E2DA8E",
"# 	c #A29C5A",
"$ 	c #4F4B23",
"% 	c #2B290B",
"& 	c #252208",
"* 	c #232008",
"= 	c #1F1D06",
"- 	c #1B1A06",
"; 	c #171605",
"> 	c #181705",
", 	c #1D1B06",
"' 	c #201E06",
") 	c #232108",
"! 	c #262308",
"~ 	c #343111",
"{ 	c #6E6937",
"] 	c #C4BC72",
"^ 	c #E7E097",
"/ 	c #EAE297",
"( 	c #DBCA78",
"_ 	c #DACA78",
": 	c #CBB05D",
"< 	c #232007",
"[ 	c #C6AC5A",
"} 	c #E1D584",
"| 	c #C1A756",
"1 	c #E0D384",
"2 	c #EBE49C",
"3 	c #C6AB59",
"4 	c #CAAF5D",
"5 	c #D9C877",
"6 	c #EAE296",
"7 	c #D6C575",
"8 	c #CAAE5C",
"9 	c #CAAF5C",
"0 	c #CCB05E",
"a 	c #C9AE5C",
"b 	c #E2D585",
"c 	c #C3A958",
"d 	c #E0D484",
"e 	c #191705",
"f 	c #C8AD5B",
"g 	c #E2D584",
"h 	c #1A1805",
"i 	c #1A1905",
"j 	c #1E1C06",
"k 	c #DACA77",
"l 	c #242108",
"m 	c #211E06",
"n 	c #1C1A06",
"o 	c #1D1C06",
"p 	c #221F07",
"q 	c #E9E296",
"r 	c #D7C775",
"s 	c #4F4C24",
"t 	c #2D2B0C",
"u 	c #282509",
"v 	c #272409",
"w 	c #262309",
"x 	c #242209",
"y 	c #242109",
"z 	c #29260A",
"A 	c #363312",
"B 	c #6E6A38",
"C 	c #E9E297",
"D 	c #D7C776",
"E 	c #E2DB8E",
"F 	c #A8A15D",
"G 	c #605C2D",
"H 	c #48451E",
"I 	c #46431D",
"J 	c #46421D",
"K 	c #45421D",
"L 	c #4D4A21",
"M 	c #79743E",
"N 	c #C6BF73",
"O 	c #E8E197",
"P 	c #E6DF91",
"Q 	c #C5BD70",
"R 	c #A19B56",
"S 	c #999352",
"T 	c #989252",
"U 	c #989352",
"V 	c #9A9452",
"W 	c #ABA45C",
"X 	c #D5CD7D",
"Y 	c #EAE299",
"Z 	c #EBE297",
"` 	c #ECE59D",
" .	c #ECE59C",
"..	c #E6DF92",
"+.	c #E2DA8D",
"@.	c #E1DA8C",
"#.	c #E0DA8C",
"$.	c #E3DC8D",
"%.	c #E9E294",
"&.	c #EDE69F",
"*.	c #EBE298",
"=.	c #CBB05E",
"-.	c #ECE49E",
";.	c #EDE7A3",
">.	c #EDE6A3",
",.	c #EAE298",
"'.	c #C8AC5A",
").	c #DDCC7D",
"!.	c #E6DB94",
"~.	c #E8DE9A",
"{.	c #E8DE9B",
"].	c #E7DD9B",
"^.	c #E6DC9A",
"/.	c #E8DD9B",
"(.	c #E5DC9A",
"_.	c #E6DC9B",
":.	c #E7DE9B",
"<.	c #E7DD99",
"[.	c #E4D88E",
"}.	c #D6C271",
"  . + @ # $ % & * = - ; ; ; ; ; ; ; ; ; ; > , ' ) ! ~ { ] ^ / ( ",
"  . + @ # $ % & * = - ; ; ; ; ; ; ; ; ; ; > , ' ) ! ~ { ] ^ / ( ",
"  . + @ # $ % & * = - ; ; ; ; ; ; ; ; ; ; > , ' ) ! ~ { ] ^ / ( ",
"  . + @ # $ % & * = - ; ; ; ; ; ; ; ; ; ; > , ' ) ! ~ { ] ^ / _ ",
"  . + @ # $ % & * = - ; ; ; ; ; ; ; ; ; ; > , ' ) ! ~ { ] ^ / _ ",
": . + @ # $ % & < = - ; ; ; ; ; ; ; ; ; ; > , ' ) ! ~ { ] ^ / _ ",
"[ } + @ # $ % & * = - ; ; ; ; ; ; ; ; ; ; > , ' ) ! ~ { ] ^ / _ ",
"| 1 2 @ # $ % & * = - ; ; ; ; ; ; ; ; ; ; > , ' ) ! ~ { ] ^ / _ ",
"3 } + @ # $ % & * = - ; ; ; ; ; ; ; ; ; ; > , ' ) ! ~ { ] ^ / _ ",
"4 . + @ # $ % & < = - ; ; ; ; ; ; ; ; ; ; > , ' ) ! ~ { ] ^ / 5 ",
": . + @ # $ % & < = - ; ; ; ; ; ; ; ; ; ; > , ' ) ! ~ { ] ^ 6 7 ",
"8 . + @ # $ % & < = - ; ; ; ; ; ; ; ; ; ; > , ' ) ! ~ { ] ^ / 5 ",
"8 . + @ # $ % & * = - ; ; ; ; ; ; ; ; ; ; > , ' ) ! ~ { ] ^ / _ ",
"9 . + @ # $ % & < = - ; ; ; ; ; ; ; ; ; ; > , ' ) ! ~ { ] ^ / ( ",
": . + @ # $ % & < = - ; ; ; ; ; ; ; ; ; ; > , ' ) ! ~ { ] ^ / ( ",
"  . + @ # $ % & * = - ; ; ; ; ; ; ; ; ; ; > , ' ) ! ~ { ] ^ / ( ",
"  . + @ # $ % & < = - ; ; ; ; ; ; ; ; ; ; > , ' ) ! ~ { ] ^ / ( ",
"  . + @ # $ % & * = - ; ; ; ; ; ; ; ; ; ; > , ' ) ! ~ { ] ^ / ( ",
"  . + @ # $ % & < = - ; ; ; ; ; ; ; ; ; ; > , ' ) ! ~ { ] ^ / ( ",
"  . + @ # $ % & * = - ; ; ; ; ; ; ; ; ; ; > , ' ) ! ~ { ] ^ / _ ",
"0 . + @ # $ % & < = - ; ; ; ; ; ; ; ; ; ; > , ' ) ! ~ { ] ^ / _ ",
"a b + @ # $ % & * = - ; ; ; ; ; ; ; ; ; ; > , ' ) ! ~ { ] ^ / _ ",
"c d 2 @ # $ % & * = - ; ; ; ; ; ; ; ; ; ; > , ' ) ! ~ { ] ^ / _ ",
"c d 2 @ # $ % & < = - > ; ; ; ; ; ; ; ; ; e , ' ) ! ~ { ] ^ / _ ",
"f g + @ # $ % & * = , h > ; ; ; ; ; ; ; > i j ' ) ! ~ { ] ^ / k ",
": . + @ # $ % & l m = , n - - - - - - - n o = p l ! ~ { ] ^ q r ",
"4 . + @ # s t u v w x y y y y y y y y y y y x w v z A B ] ^ C D ",
"8 . + E F G H I J K K K K K K K K K K K K K K K J I L M N O / k ",
"a . + P Q R S T T T T T T T T T T T T T T T T T T U V W X Y Z _ ",
"4 . `  ...+.@.#.#.#.#.#.#.#.#.#.#.#.#.#.#.#.#.#.#.#.@.$.%.&.*.( ",
"=.g -.;.;.>.>.>.>.;.;.;.;.;.;.;.;.;.;.;.>.>.>.>.>.;.;.;.;.;.,.k ",
"'.).!.~.{.].^.^.].{.{.{.{.{.{.{.{.{.{.{./.].(._.].{.:.{.:.<.[.}."};
