/* XPM */
static char * wall_lr_xpm[] = {
"32 32 54 1",
" 	c #D8C878",
".	c #E7DE93",
"+	c #E3DB92",
"@	c #C0B972",
"#	c #7B7541",
"$	c #413D1B",
"%	c #29260A",
"&	c #232108",
"*	c #201E06",
"=	c #1D1B06",
"-	c #181705",
";	c #171605",
">	c #1B1A06",
",	c #1F1D06",
"'	c #232008",
")	c #262309",
"!	c #333011",
"~	c #5F5B2F",
"{	c #A59F5F",
"]	c #DBD48A",
"^	c #E8E096",
"/	c #DFD282",
"(	c #C8AE5E",
"_	c #232007",
":	c #262308",
"<	c #E1D383",
"[	c #CBB261",
"}	c #D9C878",
"|	c #CDB362",
"1	c #DAC879",
"2	c #CEB362",
"3	c #CDB262",
"4	c #E1D283",
"5	c #CCB161",
"6	c #E0D283",
"7	c #CBB060",
"8	c #CBB061",
"9	c #D6C677",
"0	c #E6DE93",
"a	c #CBB161",
"b	c #D6C576",
"c	c #E6DE92",
"d	c #D8C777",
"e	c #C9AF60",
"f	c #E7E096",
"g	c #DED182",
"h	c #C5AC5D",
"i	c #CCB262",
"j	c #CCB261",
"k	c #D7C677",
"l	c #E0D282",
"m	c #C4AB5C",
"n	c #DFD182",
"o	c #C7AD5E",
" .+@#$%&*=-;;;;;;;;;;>,')!~{]^/(",
" .+@#$%&*=-;;;;;;;;;;>,_:!~{]^<[",
"}.+@#$%&*=-;;;;;;;;;;>,')!~{]^<|",
"}.+@#$%&*=-;;;;;;;;;;>,')!~{]^<|",
"1.+@#$%&*=-;;;;;;;;;;>,')!~{]^<|",
"1.+@#$%&*=-;;;;;;;;;;>,')!~{]^<|",
"1.+@#$%&*=-;;;;;;;;;;>,')!~{]^<2",
"1.+@#$%&*=-;;;;;;;;;;>,_:!~{]^<3",
"1.+@#$%&*=-;;;;;;;;;;>,')!~{]^45",
"}.+@#$%&*=-;;;;;;;;;;>,_:!~{]^67",
" .+@#$%&*=-;;;;;;;;;;>,')!~{]^48",
"90+@#$%&*=-;;;;;;;;;;>,')!~{]^4a",
"bc+@#$%&*=-;;;;;;;;;;>,_:!~{]^4[",
"d.+@#$%&*=-;;;;;;;;;;>,')!~{]^6e",
"}.+@#$%&*=-;;;;;;;;;;>,')!~{]fgh",
"}.+@#$%&*=-;;;;;;;;;;>,')!~{]fgh",
" .+@#$%&*=-;;;;;;;;;;>,')!~{]^6e",
" .+@#$%&*=-;;;;;;;;;;>,')!~{]^<i",
"}.+@#$%&*=-;;;;;;;;;;>,')!~{]^<|",
"1.+@#$%&*=-;;;;;;;;;;>,')!~{]^<|",
"1.+@#$%&*=-;;;;;;;;;;>,_:!~{]^<|",
"1.+@#$%&*=-;;;;;;;;;;>,_:!~{]^<|",
"1.+@#$%&*=-;;;;;;;;;;>,')!~{]^<|",
"1.+@#$%&*=-;;;;;;;;;;>,')!~{]^<i",
"1.+@#$%&*=-;;;;;;;;;;>,_:!~{]^4a",
"}.+@#$%&*=-;;;;;;;;;;>,')!~{]^48",
"d.+@#$%&*=-;;;;;;;;;;>,')!~{]^47",
"bc+@#$%&*=-;;;;;;;;;;>,')!~{]^<j",
"k0+@#$%&*=-;;;;;;;;;;>,_:!~{]^<[",
" .+@#$%&*=-;;;;;;;;;;>,')!~{]^l(",
"}.+@#$%&*=-;;;;;;;;;;>,')!~{]^gm",
"}.+@#$%&*=-;;;;;;;;;;>,_:!~{]^no"};
