/* XPM */
static char * wall_cul_xpm[] = {
"32 32 45 1",
" 	c #D3BB60",
".	c #DDCC75",
"+	c #E1D289",
"@	c #E2D38F",
"#	c #E1D28E",
"$	c #DDCE8A",
"%	c #DCCD89",
"&	c #E0D18D",
"*	c #DBC96A",
"=	c #E9E085",
"-	c #EDE79F",
";	c #EFE9A7",
">	c #EDE79E",
",	c #EBE492",
"'	c #EBE392",
")	c #E7DD79",
"!	c #E6DC78",
"~	c #B6AE5A",
"{	c #87813F",
"]	c #282608",
"^	c #272408",
"/	c #262408",
"(	c #272508",
"_	c #262308",
":	c #252208",
"<	c #242208",
"[	c #242108",
"}	c #221F07",
"|	c #211F07",
"1	c #222007",
"2	c #201E06",
"3	c #1F1D06",
"4	c #1E1C06",
"5	c #1D1B06",
"6	c #1A1805",
"7	c #191805",
"8	c #1D1C06",
"9	c #1A1905",
"0	c #171605",
"a	c #181705",
"b	c #D9C767",
"c	c #1C1A06",
"d	c #D5C363",
"e	c #D6C465",
"f	c #DAC869",
" .+@@@@@@@#$%&@@@@@@@@@@@@@@@@@@",
"*=-;;;;;;;;;;;;;;;;;;;;;;;;;;;;;",
"*=-;;;;;;;;;;;;;;;;;;;;;;;;;;;;;",
"*=-;;;;;;;;;;;;;;;;;;;;;;;;;;;;;",
"*=-;;;;;;;;;;;;;;;;;;;;;;;;;;;;;",
"*=-;;>,'''''''''''''''''''''''''",
"*=-;;,)!!!!!!!!!!!!!!!!!!!!!!!!!",
"*=-;;'!~{{{{{{{{{{{{{{{{{{{{{{{{",
"*=-;;'!{]]]]]]]]]]]]]]]]]]]]]]]]",
"*=-;;'!{]]]]]^//////////////////",
"*=-;;'!{]]]](_:::<[[[[[[[[[[[[[[",
"*=-;;'!{]]]^_:::[}||||||||||||||",
"*=-;;'!{]]]_:::[1233444444444444",
"*=-;;'!{]]]_::[}2333567777777777",
"*=-;;'!{]]]_::[23348900000000000",
"*=-;;'!{]]]_::[23357a00000000000",
"b=-;;'!{]]]_::[233ca000000000000",
"d=-;;'!{]]]_::[233ca000000000000",
"e=-;;'!{]]]_::[233ca000000000000",
"f=-;;'!{]]]_::[233ca000000000000",
"*=-;;'!{]]]_::[233ca000000000000",
"*=-;;'!{]]]_::[233ca000000000000",
"*=-;;'!{]]]_::[233ca000000000000",
"*=-;;'!{]]]_::[233ca000000000000",
"*=-;;'!{]]]_::[233ca000000000000",
"*=-;;'!{]]]_::[233ca000000000000",
"*=-;;'!{]]]_::[233ca000000000000",
"*=-;;'!{]]]_::[233ca000000000000",
"*=-;;'!{]]]_::[233ca000000000000",
"*=-;;'!{]]]_::[233ca000000000000",
"*=-;;'!{]]]_::[233ca000000000000",
"*=-;;'!{]]]_::[233ca000000000000"};
