/* XPM */
static char * wall_cdl_xpm[] = {
"32 32 121 2",
"  	c #DBC96A",
". 	c #E9E085",
"+ 	c #EDE79F",
"@ 	c #EFE9A7",
"# 	c #EEE8A3",
"$ 	c #EEE79F",
"% 	c #DED896",
"& 	c #CEC88C",
"* 	c #E9E084",
"= 	c #EDE69D",
"- 	c #EFE9A5",
"; 	c #E7DE7C",
"> 	c #E9E188",
", 	c #EAE28B",
"' 	c #DAC868",
") 	c #E5DB74",
"! 	c #D5C35F",
"~ 	c #DED468",
"{ 	c #D3C25C",
"] 	c #DCD264",
"^ 	c #D8C665",
"/ 	c #E2D86F",
"( 	c #C4B359",
"_ 	c #CDC461",
": 	c #D5CB63",
"< 	c #DBD168",
"[ 	c #E1D76D",
"} 	c #E2D86E",
"| 	c #E2D76E",
"1 	c #DCD269",
"2 	c #D9CF65",
"3 	c #DED46B",
"4 	c #DFD56B",
"5 	c #908132",
"6 	c #938C32",
"7 	c #AEA539",
"8 	c #C3B948",
"9 	c #D5CB5A",
"0 	c #D9CE5D",
"a 	c #D8CD5C",
"b 	c #C5BC4A",
"c 	c #BAB13F",
"d 	c #CCC251",
"e 	c #CFC453",
"f 	c #796B22",
"g 	c #7A741D",
"h 	c #9D9527",
"i 	c #B9AF3A",
"j 	c #D0C652",
"k 	c #D5CA56",
"l 	c #D3C854",
"m 	c #BCB23D",
"n 	c #ADA32E",
"o 	c #C4BA46",
"p 	c #C7BD49",
"q 	c #CEC34F",
"r 	c #C5BB46",
"s 	c #CDC24E",
"t 	c #D2C753",
"u 	c #C9BF4B",
"v 	c #C8BE4A",
"w 	c #D1C652",
"x 	c #C3B945",
"y 	c #AEA530",
"z 	c #C1B742",
"A 	c #CEC44F",
"B 	c #B6AC38",
"C 	c #CCC14D",
"D 	c #CABF4B",
"E 	c #BCB23E",
"F 	c #CFC450",
"G 	c #C5BA46",
"H 	c #C9BE4A",
"I 	c #C1B743",
"J 	c #D4C955",
"K 	c #D3C955",
"L 	c #C8BE49",
"M 	c #B1A733",
"N 	c #BAB03B",
"O 	c #D0C551",
"P 	c #C4BA45",
"Q 	c #B8AE39",
"R 	c #ACA32E",
"S 	c #B0A732",
"T 	c #B2A934",
"U 	c #A89F2A",
"V 	c #A9A02B",
"W 	c #BBB13C",
"X 	c #B7AD39",
"Y 	c #B0A631",
"Z 	c #BDB33F",
"` 	c #B8AE3A",
" .	c #ABA12D",
"..	c #786A21",
"+.	c #CDC34F",
"@.	c #B6AC37",
"#.	c #ABA22D",
"$.	c #C6BC47",
"%.	c #B1A732",
"&.	c #BEB440",
"*.	c #74661D",
"=.	c #AFA531",
"-.	c #BEB43F",
";.	c #73641B",
">.	c #B8AF3A",
",.	c #CCC24D",
"'.	c #C2B844",
").	c #77691F",
"!.	c #CBC04C",
"~.	c #C0B642",
"{.	c #B5AB36",
"].	c #C7BD48",
"^.	c #B4AA35",
"/.	c #AFA631",
"(.	c #AAA12C",
"_.	c #B1A833",
":.	c #BDB33E",
"<.	c #B7AD38",
"[.	c #C5BB47",
"}.	c #C6BC48",
"|.	c #BFB540",
"  . + @ @ # $ % & & & & & & & & & & & & & & & & & & & & & & & & ",
"  . + @ @ @ @ @ @ @ @ @ @ @ @ @ @ @ @ @ @ @ @ @ @ @ @ @ @ @ @ @ ",
"  . + @ @ @ @ @ @ @ @ @ @ @ @ @ @ @ @ @ @ @ @ @ @ @ @ @ @ @ @ @ ",
"  . + @ @ @ @ @ @ @ @ @ @ @ @ @ @ @ @ @ @ @ @ @ @ @ @ @ @ @ @ @ ",
"  . + @ @ @ @ @ @ @ @ @ @ @ @ @ @ @ @ @ @ @ @ @ @ @ @ @ @ @ @ @ ",
"  . + @ @ @ @ @ @ @ @ @ @ @ @ @ @ @ @ @ @ @ @ @ @ @ @ @ @ @ @ @ ",
"  * = - - - - - - - - - - - - - - - - - - - - - - - - - - - - - ",
"  ; > , , , , , , , , , , , , , , , , , , , , , , , , , , , , , ",
"' ) ) ) ) ) ) ) ) ) ) ) ) ) ) ) ) ) ) ) ) ) ) ) ) ) ) ) ) ) ) ) ",
"! ~ ~ ~ ~ ~ ~ ~ ~ ~ ~ ~ ~ ~ ~ ~ ~ ~ ~ ~ ~ ~ ~ ~ ~ ~ ~ ~ ~ ~ ~ ~ ",
"{ ] ] ] ] ] ] ] ] ] ] ] ] ] ] ] ] ] ] ] ] ] ] ] ] ] ] ] ] ] ] ] ",
"^ / / / / / / / / / / / / / / / / / / / / / / / / / / / / / / / ",
"( _ : < [ } } } | 1 2 3 } } } } } } } } } } } | 1 2 3 } } } } 4 ",
"5 6 7 8 9 0 0 0 a b c d 0 0 0 0 0 0 0 0 0 0 0 a b c d 0 0 0 0 e ",
"f g h i j k k k l m n o k k k k k k k k k k k l m n o k k k k p ",
"f g h i j k k k l m n o k k k k k k k k k k k l m n o k k k k p ",
"f g h i j q r s l m n o k k k k k k k k k k k l m n o t u v w p ",
"f g h i j x y z l m n o k k k k k k k k k k k l m n o A i B C p ",
"f g h i j D E v l m n o k k k k F G H l k k k l m n o w x I F p ",
"f g h i j J K J l m n o k k k k L M N w k k k l m n o k J J k p ",
"f g h i j k k k l m n o k k O P Q R S E v J k l m n o k k k k p ",
"f g h i j J K J l m n o k J u T U V V U W t J l m n o k J J k p ",
"f g h i j D E v l m n o w x X n Y Z `  .S W v l m n o w x I F p ",
"..g h i j x y z l m n o +.@.V #.i A $.%. .U &.l m n o A i B C p ",
"*.g h i j q r s l m n o +.@.=.-.u t F $.` V &.l m n o t u v w p ",
";.g h i j k k k l m n o F W >.,.l F O J G M '.l m n o k k k k p ",
").g h i j k k k l m n o l C !.t C W I t F L A l m n o k k k k p ",
"f g h i j j !.O l m n o k k l s ~.y {.].F k k l m n o l q s l p ",
"f g h i j $.^.P l m n o k k s W /.(.R _.I J k l m n o F :.W s p ",
"f g h i j p <.[.l m n o l C ~./.U U U U @.}.A l m n o O |.:.q p ",
"f g h i j t q w l m n o F W y (.U U U U #./.'.l m n o J O F l p ",
"f g h i j k k k l m n o +.@.U U U U U U U U &.l m n o k k k k p "};
