/* XPM */
static char * wall_point_d_xpm[] = {
"32 32 137 2",
"  	c #C5B970",
". 	c #B8B270",
"+ 	c #B1AB6B",
"@ 	c #ADA667",
"# 	c #A6A062",
"$ 	c #A29D60",
"% 	c #A29C60",
"& 	c #A19C60",
"* 	c #A49E61",
"= 	c #A9A364",
"- 	c #B0AA6A",
"; 	c #B2AC6C",
"> 	c #B0A968",
", 	c #B1A664",
"' 	c #D3C77D",
") 	c #D1CA83",
"! 	c #CEC781",
"~ 	c #CEC57E",
"{ 	c #DDD084",
"] 	c #E2D98F",
"^ 	c #E1D88E",
"/ 	c #E2D88E",
"( 	c #E0D88E",
"_ 	c #DFD58A",
": 	c #DDCE80",
"< 	c #E2D78B",
"[ 	c #E1D68A",
"} 	c #DED287",
"| 	c #D9CD83",
"1 	c #D7CB82",
"2 	c #D7CA82",
"3 	c #D6CA82",
"4 	c #D5CA82",
"5 	c #D5CA81",
"6 	c #D4C980",
"7 	c #D5C980",
"8 	c #D6CB82",
"9 	c #D7CC82",
"0 	c #DBCF83",
"a 	c #DFD487",
"b 	c #E1D588",
"c 	c #DDCF82",
"d 	c #DAC97A",
"e 	c #E2D68A",
"f 	c #DFD488",
"g 	c #CEC378",
"h 	c #B4A865",
"i 	c #A69A5D",
"j 	c #A3975C",
"k 	c #A2975B",
"l 	c #A2965B",
"m 	c #A1965B",
"n 	c #A0965A",
"o 	c #A0955A",
"p 	c #A1965A",
"q 	c #A2965C",
"r 	c #A3975B",
"s 	c #A4985C",
"t 	c #ACA060",
"u 	c #C2B76F",
"v 	c #DBD083",
"w 	c #DECF81",
"x 	c #D3BF70",
"y 	c #DAC879",
"z 	c #E5DC90",
"A 	c #C3BA72",
"B 	c #898149",
"C 	c #625A30",
"D 	c #574F29",
"E 	c #544D29",
"F 	c #534C28",
"G 	c #534B28",
"H 	c #514A27",
"I 	c #504927",
"J 	c #504926",
"K 	c #514A28",
"L 	c #524B28",
"M 	c #554E29",
"N 	c #5B542B",
"O 	c #746D3B",
"P 	c #ABA361",
"Q 	c #DAD288",
"R 	c #E6DD93",
"S 	c #E0D181",
"T 	c #CEB564",
"U 	c #E7DE93",
"V 	c #E3DB92",
"W 	c #C0B972",
"X 	c #7B7541",
"Y 	c #413D1B",
"Z 	c #29260A",
"` 	c #232108",
" .	c #201E06",
"..	c #1D1B06",
"+.	c #181705",
"@.	c #171605",
"#.	c #1B1A06",
"$.	c #1F1D06",
"%.	c #232008",
"&.	c #262309",
"*.	c #333011",
"=.	c #5F5B2F",
"-.	c #A59F5F",
";.	c #DBD48A",
">.	c #E8E096",
",.	c #E1D383",
"'.	c #CEB362",
").	c #232007",
"!.	c #262308",
"~.	c #CDB262",
"{.	c #E1D283",
"].	c #CCB161",
"^.	c #D9C878",
"/.	c #E0D283",
"(.	c #CBB060",
"_.	c #D8C878",
":.	c #CBB061",
"<.	c #D6C677",
"[.	c #E6DE93",
"}.	c #CBB161",
"|.	c #D6C576",
"1.	c #E6DE92",
"2.	c #CBB261",
"3.	c #D8C777",
"4.	c #C9AF60",
"5.	c #E7E096",
"6.	c #DED182",
"7.	c #C5AC5D",
"8.	c #CCB262",
"9.	c #CDB362",
"0.	c #CCB261",
"a.	c #D7C677",
"b.	c #E0D282",
"c.	c #C8AE5E",
"d.	c #C4AB5C",
"e.	c #DFD182",
"f.	c #C7AD5E",
"  . + @ # $ % % % % & & & & & & & & & & & % % % % % * = - ; > , ",
"' ) ! ! ! ! ! ! ! ! ! ! ! ! ! ! ! ! ! ! ! ! ! ! ! ! ! ! ! ! ! ~ ",
"{ ] ^ ^ / / / / / / ^ ^ ( ^ ^ ^ ^ ^ ^ / / / / / / / ^ ^ ( ^ ^ _ ",
": < [ } | 1 1 1 2 3 4 5 6 7 5 3 3 3 3 3 2 2 2 1 1 8 9 0 a [ b c ",
"d e f g h i j j k l m n o o p m m m m l l q q j r s t u v e w x ",
"y z ] A B C D E F G H I J J H H H H H H K L F E M N O P Q R S T ",
"y U V W X Y Z `  ...+.@.@.@.@.@.@.@.@.@.@.#.$.%.&.*.=.-.;.>.,.'.",
"y U V W X Y Z `  ...+.@.@.@.@.@.@.@.@.@.@.#.$.).!.*.=.-.;.>.,.~.",
"y U V W X Y Z `  ...+.@.@.@.@.@.@.@.@.@.@.#.$.%.&.*.=.-.;.>.{.].",
"^.U V W X Y Z `  ...+.@.@.@.@.@.@.@.@.@.@.#.$.).!.*.=.-.;.>./.(.",
"_.U V W X Y Z `  ...+.@.@.@.@.@.@.@.@.@.@.#.$.%.&.*.=.-.;.>.{.:.",
"<.[.V W X Y Z `  ...+.@.@.@.@.@.@.@.@.@.@.#.$.%.&.*.=.-.;.>.{.}.",
"|.1.V W X Y Z `  ...+.@.@.@.@.@.@.@.@.@.@.#.$.).!.*.=.-.;.>.{.2.",
"3.U V W X Y Z `  ...+.@.@.@.@.@.@.@.@.@.@.#.$.%.&.*.=.-.;.>./.4.",
"^.U V W X Y Z `  ...+.@.@.@.@.@.@.@.@.@.@.#.$.%.&.*.=.-.;.5.6.7.",
"^.U V W X Y Z `  ...+.@.@.@.@.@.@.@.@.@.@.#.$.%.&.*.=.-.;.5.6.7.",
"_.U V W X Y Z `  ...+.@.@.@.@.@.@.@.@.@.@.#.$.%.&.*.=.-.;.>./.4.",
"_.U V W X Y Z `  ...+.@.@.@.@.@.@.@.@.@.@.#.$.%.&.*.=.-.;.>.,.8.",
"^.U V W X Y Z `  ...+.@.@.@.@.@.@.@.@.@.@.#.$.%.&.*.=.-.;.>.,.9.",
"y U V W X Y Z `  ...+.@.@.@.@.@.@.@.@.@.@.#.$.%.&.*.=.-.;.>.,.9.",
"y U V W X Y Z `  ...+.@.@.@.@.@.@.@.@.@.@.#.$.).!.*.=.-.;.>.,.9.",
"y U V W X Y Z `  ...+.@.@.@.@.@.@.@.@.@.@.#.$.).!.*.=.-.;.>.,.9.",
"y U V W X Y Z `  ...+.@.@.@.@.@.@.@.@.@.@.#.$.%.&.*.=.-.;.>.,.9.",
"y U V W X Y Z `  ...+.@.@.@.@.@.@.@.@.@.@.#.$.%.&.*.=.-.;.>.,.8.",
"y U V W X Y Z `  ...+.@.@.@.@.@.@.@.@.@.@.#.$.).!.*.=.-.;.>.{.}.",
"^.U V W X Y Z `  ...+.@.@.@.@.@.@.@.@.@.@.#.$.%.&.*.=.-.;.>.{.:.",
"3.U V W X Y Z `  ...+.@.@.@.@.@.@.@.@.@.@.#.$.%.&.*.=.-.;.>.{.(.",
"|.1.V W X Y Z `  ...+.@.@.@.@.@.@.@.@.@.@.#.$.%.&.*.=.-.;.>.,.0.",
"a.[.V W X Y Z `  ...+.@.@.@.@.@.@.@.@.@.@.#.$.).!.*.=.-.;.>.,.2.",
"_.U V W X Y Z `  ...+.@.@.@.@.@.@.@.@.@.@.#.$.%.&.*.=.-.;.>.b.c.",
"^.U V W X Y Z `  ...+.@.@.@.@.@.@.@.@.@.@.#.$.%.&.*.=.-.;.>.6.d.",
"^.U V W X Y Z `  ...+.@.@.@.@.@.@.@.@.@.@.#.$.).!.*.=.-.;.>.e.f."};
