/* XPM */
static char * wall_cur_xpm[] = {
"32 32 45 1",
" 	c #E2D38F",
".	c #E0D18D",
"+	c #DCCD89",
"@	c #DDCE8A",
"#	c #E1D28E",
"$	c #E1D289",
"%	c #DDCC75",
"&	c #D3BB60",
"*	c #EFE9A7",
"=	c #EDE79F",
"-	c #E9E085",
";	c #DBC96A",
">	c #EBE392",
",	c #EBE492",
"'	c #EDE79E",
")	c #E6DC78",
"!	c #E7DD79",
"~	c #87813F",
"{	c #B6AE5A",
"]	c #282608",
"^	c #262408",
"/	c #272408",
"(	c #242108",
"_	c #242208",
":	c #252208",
"<	c #262308",
"[	c #272508",
"}	c #211F07",
"|	c #221F07",
"1	c #1E1C06",
"2	c #1F1D06",
"3	c #201E06",
"4	c #222007",
"5	c #191805",
"6	c #1A1805",
"7	c #1D1B06",
"8	c #171605",
"9	c #1A1905",
"0	c #1D1C06",
"a	c #181705",
"b	c #1C1A06",
"c	c #D9C767",
"d	c #D5C363",
"e	c #D6C465",
"f	c #DAC869",
"                  .+@#       $%&",
"*****************************=-;",
"*****************************=-;",
"*****************************=-;",
"*****************************=-;",
">>>>>>>>>>>>>>>>>>>>>>>>>,'**=-;",
")))))))))))))))))))))))))!,**=-;",
"~~~~~~~~~~~~~~~~~~~~~~~~{)>**=-;",
"]]]]]]]]]]]]]]]]]]]]]]]]~)>**=-;",
"^^^^^^^^^^^^^^^^^^/]]]]]~)>**=-;",
"((((((((((((((_:::<[]]]]~)>**=-;",
"}}}}}}}}}}}}}}|(:::</]]]~)>**=-;",
"1111111111112234(:::<]]]~)>**=-;",
"5555555555672223|(::<]]]~)>**=-;",
"88888888888901223(::<]]]~)>**=-;",
"88888888888a57223(::<]]]~)>**=-;",
"888888888888ab223(::<]]]~)>**=-c",
"888888888888ab223(::<]]]~)>**=-d",
"888888888888ab223(::<]]]~)>**=-e",
"888888888888ab223(::<]]]~)>**=-f",
"888888888888ab223(::<]]]~)>**=-;",
"888888888888ab223(::<]]]~)>**=-;",
"888888888888ab223(::<]]]~)>**=-;",
"888888888888ab223(::<]]]~)>**=-;",
"888888888888ab223(::<]]]~)>**=-;",
"888888888888ab223(::<]]]~)>**=-;",
"888888888888ab223(::<]]]~)>**=-;",
"888888888888ab223(::<]]]~)>**=-;",
"888888888888ab223(::<]]]~)>**=-;",
"888888888888ab223(::<]]]~)>**=-;",
"888888888888ab223(::<]]]~)>**=-;",
"888888888888ab223(::<]]]~)>**=-;"};
