/* XPM */
static char * wall_cdr_xpm[] = {
"32 32 128 2",
"  	c #CEC88C",
". 	c #DED896",
"+ 	c #EEE8A1",
"@ 	c #EFE9A5",
"# 	c #EFE9A7",
"$ 	c #EEE8A3",
"% 	c #EDE598",
"& 	c #DACF83",
"* 	c #EFE9A6",
"= 	c #F0EAA8",
"- 	c #DFD99A",
"; 	c #EAE28B",
"> 	c #EDE699",
", 	c #E5DB74",
"' 	c #EAE28F",
") 	c #DED468",
"! 	c #E7DF8B",
"~ 	c #DCD264",
"{ 	c #E6DE89",
"] 	c #E2D86F",
"^ 	c #E9E18D",
"/ 	c #E2D86E",
"( 	c #E2D76E",
"_ 	c #DCD269",
": 	c #D9CF65",
"< 	c #DED46B",
"[ 	c #DFD56B",
"} 	c #D9CF66",
"| 	c #DBD168",
"1 	c #E1D76D",
"2 	c #D9CE5D",
"3 	c #D8CD5C",
"4 	c #C5BC4A",
"5 	c #BAB13F",
"6 	c #CCC251",
"7 	c #CFC453",
"8 	c #BCB341",
"9 	c #C3B948",
"0 	c #D5CB5A",
"a 	c #E4DC87",
"b 	c #D5CA56",
"c 	c #D3C854",
"d 	c #BCB23D",
"e 	c #ADA32E",
"f 	c #C4BA46",
"g 	c #C7BD49",
"h 	c #B0A631",
"i 	c #B9AF3A",
"j 	c #D0C652",
"k 	c #E2DA85",
"l 	c #D2C753",
"m 	c #C9BF4B",
"n 	c #C8BE4A",
"o 	c #D1C652",
"p 	c #CEC44F",
"q 	c #B6AC38",
"r 	c #CCC14D",
"s 	c #CFC450",
"t 	c #C5BA46",
"u 	c #C9BE4A",
"v 	c #C3B945",
"w 	c #C1B743",
"x 	c #C8BE49",
"y 	c #B1A733",
"z 	c #BAB03B",
"A 	c #D4C955",
"B 	c #D0C551",
"C 	c #C4BA45",
"D 	c #B8AE39",
"E 	c #ACA32E",
"F 	c #B0A732",
"G 	c #BCB23E",
"H 	c #CABF4B",
"I 	c #D8D17F",
"J 	c #B2A934",
"K 	c #A89F2A",
"L 	c #A9A02B",
"M 	c #BBB13C",
"N 	c #D3C955",
"O 	c #BEB43F",
"P 	c #CFC87B",
"Q 	c #B7AD39",
"R 	c #BDB33F",
"S 	c #B8AE3A",
"T 	c #ABA12D",
"U 	c #B2A834",
"V 	c #D0C97B",
"W 	c #B6AC37",
"X 	c #ABA22D",
"Y 	c #C6BC47",
"Z 	c #B1A732",
"` 	c #BEB440",
" .	c #AAA12C",
"..	c #D2CB7C",
"+.	c #AFA531",
"@.	c #B6AD38",
"#.	c #DBD481",
"$.	c #E3DD9C",
"%.	c #B8AF3A",
"&.	c #CCC24D",
"*.	c #C2B844",
"=.	c #EBE4A1",
"-.	c #CBC04C",
";.	c #EFE8A4",
">.	c #CDC24E",
",.	c #C0B642",
"'.	c #AEA530",
").	c #B5AB36",
"!.	c #C7BD48",
"~.	c #CEC34F",
"{.	c #DDD582",
"].	c #AFA631",
"^.	c #B1A833",
"/.	c #BDB33E",
"(.	c #D3CC7D",
"_.	c #C6BC48",
":.	c #BFB540",
"<.	c #CFC878",
"[.	c #EEE8A4",
"}.	c #CDC56D",
"|.	c #EBE492",
"1.	c #EBE493",
"2.	c #C8BD5B",
"3.	c #E2D577",
"4.	c #E2D578",
"5.	c #E2D477",
"6.	c #E0D376",
"7.	c #DFD275",
"                                                . + @ # # $ % & ",
"# # # # # # # # # # # # # # # # # # # # # # # # # * * # # # = - ",
"# # # # # # # # # # # # # # # # # # # # # # # # # * * # # # = - ",
"# # # # # # # # # # # # # # # # # # # # # # # # # * * # # # = - ",
"# # # # # # # # # # # # # # # # # # # # # # # # # * * # # # = - ",
"# # # # # # # # # # # # # # # # # # # # # # # # # * * # # # = - ",
"@ @ @ @ @ @ @ @ @ @ @ @ @ @ @ @ @ @ @ @ @ @ @ @ @ @ * # # # = - ",
"; ; ; ; ; ; ; ; ; ; ; ; ; ; ; ; ; ; ; ; ; ; ; ; ; > * # # # = - ",
", , , , , , , , , , , , , , , , , , , , , , , , , ' * # # # = - ",
") ) ) ) ) ) ) ) ) ) ) ) ) ) ) ) ) ) ) ) ) ) ) ) ) ! * # # # = - ",
"~ ~ ~ ~ ~ ~ ~ ~ ~ ~ ~ ~ ~ ~ ~ ~ ~ ~ ~ ~ ~ ~ ~ ~ ~ { * # # # = - ",
"] ] ] ] ] ] ] ] ] ] ] ] ] ] ] ] ] ] ] ] ] ] ] ] ] ^ * # # # = - ",
"/ / / / / / / / / / ( _ : < / / / / [ } | 1 / / / ^ * # # # = - ",
"2 2 2 2 2 2 2 2 2 2 3 4 5 6 2 2 2 2 7 8 9 0 2 2 2 a * # # # = - ",
"b b b b b b b b b b c d e f b b b b g h i j b b b k * # # # = - ",
"b b b b b b b b b b c d e f b b b b g h i j b b b k * # # # = - ",
"b b b b b b b b b b c d e f l m n o g h i j b b b k * # # # = - ",
"b b b b b b b b b b c d e f p i q r g h i j b b b k * # # # = - ",
"b b b s t u c b b b c d e f o v w s g h i j b b b k * # # # = - ",
"b b b x y z o b b b c d e f b A A b g h i j b b b k * # # # = - ",
"b B C D E F G n A b c d e f b b b b g h i j b b H I * # # # = - ",
"A m J K L L K M l A c d e f b A A b g h i j A N O P * # # # = - ",
"v Q e h R S T F M n c d e f o v w s g h i j H G U V * # # # = - ",
"W L X i p Y Z T K ` c d e f p i q r g h i j w  . ...* # # # = - ",
"W +.O m l s Y S L ` c d e f l m n o g h i j w  .@.#.* # # # # $.",
"M %.&.c s B A t y *.c d e f b b b b g h i j t y *.k * # # # # =.",
"r -.l r M w l s x p c d e f b b b b g h i j s x p k * # # # # ;.",
"b c >.,.'.).!.s b b c d e f c ~.>.c g h i j b b B {.* # # # # * ",
"b >.M ]. .E ^.w A b c d e f s /.M >.g h i j b b C (.* # # # # # ",
"r ,.].K K K K W _.p c d e f B :./.~.g h i j s x D <.$ [.[.[.[.[.",
"M '. .K K K K X ].*.c d e f A B s c g h i j t y E }.|.1.1.1.1.1.",
"W K K K K K K K K ` c d e f b b b b g h i j w  .K 2.3.4.4.5.6.7."};
