/* XPM */
static char * wall_point_u_xpm[] = {
"32 32 85 1",
" 	c #C8AB5B",
".	c #D1B870",
"+	c #D1B976",
"@	c #D0B875",
"#	c #D2B976",
"$	c #CCB573",
"%	c #C8B06F",
"&	c #CFB774",
"*	c #D2BA76",
"=	c #D1B975",
"-	c #D1B875",
";	c #C8B16F",
">	c #CBB371",
",	c #D1B974",
"'	c #CDB264",
")	c #C09B4B",
"!	c #D9C772",
"~	c #E9DF95",
"{	c #EBE29F",
"]	c #EAE19F",
"^	c #E9E09E",
"/	c #E9E19E",
"(	c #EAE19B",
"_	c #E1D381",
":	c #C8AA56",
"<	c #DCCC76",
"[	c #EDE69C",
"}	c #EFE9A7",
"|	c #EEE8A2",
"1	c #E5D986",
"2	c #CAAD58",
"3	c #EBE494",
"4	c #EBE390",
"5	c #EBE392",
"6	c #EDE69D",
"7	c #C8AC57",
"8	c #D8CE78",
"9	c #9A944B",
"0	c #8E8844",
"a	c #908A45",
"b	c #C1B966",
"c	c #EBE393",
"d	c #C8AB56",
"e	c #C9C170",
"f	c #565226",
"g	c #282608",
"h	c #272508",
"i	c #32300F",
"j	c #9C9551",
"k	c #C8AC56",
"l	c #D9C974",
"m	c #272408",
"n	c #252208",
"o	c #242108",
"p	c #222008",
"q	c #221F08",
"r	c #262308",
"s	c #D9C973",
"t	c #221F07",
"u	c #1F1D06",
"v	c #1D1C06",
"w	c #1C1A06",
"x	c #1B1A06",
"y	c #1D1B06",
"z	c #201E06",
"A	c #C9AD57",
"B	c #232108",
"C	c #1E1C06",
"D	c #1A1905",
"E	c #181705",
"F	c #171605",
"G	c #191805",
"H	c #232008",
"I	c #E4D986",
"J	c #C7AB55",
"K	c #232007",
"L	c #E3D885",
"M	c #C0A44F",
"N	c #C1A551",
"O	c #DBCB75",
"P	c #D7C772",
"Q	c #C5A853",
"R	c #E2D784",
"S	c #BCA04C",
"T	c #C5A954",
" .+@+@#+$%&#******=-+=*@;>=**,')",
"!~{{{{{{]^]{{{{{{{{{{{{{/]{{{(_:",
"<[}}}}}}}}}}}}}}}}}}}}}}}}}}}|12",
"<[|34444444444444444444444456|17",
"<[689000000000000000000000abc|1d",
"<[6efgghhhhhhhhhhhhhhhhhggijc|1k",
"l[6efgmnopqqqqqqqqqqqqonrgijc|1d",
"s[6efgnotuvwxxxxxxxxyuzonhijc|1A",
"<[6efgnBzCDEFFFFFFFFGyuHnhijc|IJ",
"<[6efgnBzyEFFFFFFFFFFxuKnhijc|LM",
"<[6efgnBzyEFFFFFFFFFFxuHnhijc|LN",
"<[6efgnBzyEFFFFFFFFFFxuHnhijc|Ik",
"<[6efgnBzyEFFFFFFFFFFxuKnhijc|12",
"<[6efgnBzyEFFFFFFFFFFxuHnhijc|12",
"<[6efgnBzyEFFFFFFFFFFxuKnhijc|12",
"<[6efgnBzyEFFFFFFFFFFxuHnhijc|12",
"<[6efgnBzyEFFFFFFFFFFxuKnhijc|12",
"<[6efgnBzyEFFFFFFFFFFxuHnhijc|12",
"<[6efgnBzyEFFFFFFFFFFxuKnhijc|1A",
"<[6efgnBzyEFFFFFFFFFFxuKnhijc|1k",
"<[6efgnBzyEFFFFFFFFFFxuHnhijc|1k",
"O[6efgnBzyEFFFFFFFFFFxuKnhijc|1d",
"P[6efgnBzyEFFFFFFFFFFxuKnhijc|1A",
"O[6efgnBzyEFFFFFFFFFFxuKnhijc|1A",
"<[6efgnBzyEFFFFFFFFFFxuHnhijc|IQ",
"<[6efgnBzyEFFFFFFFFFFxuHnhijc|RS",
"<[6efgnBzyEFFFFFFFFFFxuHnhijc|IT",
"<[6efgnBzyEFFFFFFFFFFxuKnhijc|1A",
"<[6efgnBzyEFFFFFFFFFFxuHnhijc|12",
"<[6efgnBzyEFFFFFFFFFFxuHnhijc|12",
"<[6efgnBzyEFFFFFFFFFFxuHnhijc|12",
"<[6efgnBzyEFFFFFFFFFFxuHnhijc|12"};
