/* XPM */
static char * wall_cul_xpm[] = {
"32 32 165 2",
"  	c #E0DA9A",
". 	c #DFD99A",
"+ 	c #E0DA9B",
"@ 	c #D7D193",
"# 	c #CEC88C",
"$ 	c #DED896",
"% 	c #EEE79F",
"& 	c #EEE8A3",
"* 	c #EFE9A7",
"= 	c #EDE79F",
"- 	c #E9E085",
"; 	c #D5C363",
"> 	c #EFE9A6",
", 	c #F0EAA8",
"' 	c #DED89A",
") 	c #D6C465",
"! 	c #DAC869",
"~ 	c #DBC96A",
"{ 	c #DED899",
"] 	c #EFE9A5",
"^ 	c #EDE69D",
"/ 	c #E9E084",
"( 	c #DCD58B",
"_ 	c #EAE28B",
": 	c #E9E188",
"< 	c #E7DE7C",
"[ 	c #D9D180",
"} 	c #E5DB74",
"| 	c #DAC868",
"1 	c #D5CD7B",
"2 	c #DED468",
"3 	c #D5C35F",
"4 	c #D4CC79",
"5 	c #DCD264",
"6 	c #D3C25C",
"7 	c #D7CF7E",
"8 	c #E2D86F",
"9 	c #D8C665",
"0 	c #E2D86E",
"a 	c #E2D76E",
"b 	c #DCD269",
"c 	c #D9CF65",
"d 	c #DED46B",
"e 	c #DFD56B",
"f 	c #D9CF66",
"g 	c #DBD168",
"h 	c #E1D76D",
"i 	c #DED46C",
"j 	c #D0C764",
"k 	c #C4B359",
"l 	c #D3CA77",
"m 	c #D9CE5D",
"n 	c #D8CD5C",
"o 	c #C5BC4A",
"p 	c #BAB13F",
"q 	c #CCC251",
"r 	c #CFC453",
"s 	c #BCB341",
"t 	c #C3B948",
"u 	c #D5CB5A",
"v 	c #CBC156",
"w 	c #9E963C",
"x 	c #908132",
"y 	c #D1C874",
"z 	c #D5CA56",
"A 	c #D3C854",
"B 	c #BCB23D",
"C 	c #ADA32E",
"D 	c #C4BA46",
"E 	c #C7BD49",
"F 	c #B0A631",
"G 	c #B9AF3A",
"H 	c #D0C652",
"I 	c #C2B84C",
"J 	c #87812B",
"K 	c #796B22",
"L 	c #D2C753",
"M 	c #C9BF4B",
"N 	c #C8BE4A",
"O 	c #D1C652",
"P 	c #CEC44F",
"Q 	c #B6AC38",
"R 	c #CCC14D",
"S 	c #D0C774",
"T 	c #C3B945",
"U 	c #C1B743",
"V 	c #CFC450",
"W 	c #D4C955",
"X 	c #CABF4B",
"Y 	c #CEC34F",
"Z 	c #CFC673",
"` 	c #D3C955",
" .	c #BCB23E",
"..	c #AEA530",
"+.	c #C5BB46",
"@.	c #C4BC6D",
"#.	c #BEB43F",
"$.	c #B2A834",
"%.	c #AAA12C",
"&.	c #B6AD38",
"*.	c #B0A639",
"=.	c #817A24",
"-.	c #BBB469",
";.	c #BBB13C",
">.	c #A89F2A",
",.	c #A9A02B",
"'.	c #9D9527",
").	c #7A741D",
"!.	c #BCB569",
"~.	c #B0A732",
"{.	c #BFB540",
"].	c #B1A833",
"^.	c #BFB769",
"/.	c #ABA12D",
"(.	c #BEB440",
"_.	c #BBB23D",
":.	c #A1982B",
"<.	c #7B751F",
"[.	c #E3DD9C",
"}.	c #CEC673",
"|.	c #B8AE3A",
"1.	c #CBC04C",
"2.	c #B5AB3E",
"3.	c #827C26",
"4.	c #EBE4A1",
"5.	c #DDD57D",
"6.	c #C5BA46",
"7.	c #B1A733",
"8.	c #C2B844",
"9.	c #EFE8A4",
"0.	c #E1D881",
"a.	c #C8BE49",
"b.	c #DCD481",
"c.	c #CDC24E",
"d.	c #D0C551",
"e.	c #B7AD39",
"f.	c #ABA22D",
"g.	c #BAB043",
"h.	c #847E28",
"i.	c #D3CC7E",
"j.	c #BDB33E",
"k.	c #C4BA45",
"l.	c #B2A934",
"m.	c #AFA531",
"n.	c #A69D30",
"o.	c #7D7721",
"p.	c #EEE8A4",
"q.	c #CFC87B",
"r.	c #B6AC37",
"s.	c #C6BC48",
"t.	c #B8AE39",
"u.	c #77691F",
"v.	c #EBE492",
"w.	c #EBE493",
"x.	c #CDC56E",
"y.	c #AFA631",
"z.	c #ACA32E",
"A.	c #73641B",
"B.	c #E2D577",
"C.	c #E2D578",
"D.	c #E2D477",
"E.	c #E0D376",
"F.	c #DFD275",
"G.	c #C7BB59",
"H.	c #74661D",
"  . . . + @ # # # # # # # # # # # # # # # # # # $ % & * * = - ; ",
"> * * * , . ' * * * * * * * * * * * * * * * * * * * * * * = - ) ",
"> * * * , . ' * * * * * * * * * * * * * * * * * * * * * * = - ! ",
"> * * * , . ' * * * * * * * * * * * * * * * * * * * * * * = - ~ ",
"> * * * , . ' * * * * * * * * * * * * * * * * * * * * * * = - ~ ",
"> * * * , . ' * * * * * * * * * * * * * * * * * * * * * * = - ~ ",
"> * * * , . { ] ] ] ] ] ] ] ] ] ] ] ] ] ] ] ] ] ] ] ] ] ] ^ / ~ ",
"> * * * , . ( _ _ _ _ _ _ _ _ _ _ _ _ _ _ _ _ _ _ _ _ _ _ : < ~ ",
"> * * * , . [ } } } } } } } } } } } } } } } } } } } } } } } } | ",
"> * * * , . 1 2 2 2 2 2 2 2 2 2 2 2 2 2 2 2 2 2 2 2 2 2 2 2 2 3 ",
"> * * * , . 4 5 5 5 5 5 5 5 5 5 5 5 5 5 5 5 5 5 5 5 5 5 5 5 5 6 ",
"> * * * , . 7 8 8 8 8 8 8 8 8 8 8 8 8 8 8 8 8 8 8 8 8 8 8 8 8 9 ",
"> * * * , . 7 0 0 0 a b c d 0 0 0 0 e f g h 0 0 0 0 0 0 0 i j k ",
"> * * * , . l m m m n o p q m m m m r s t u m m m m m m m v w x ",
"> * * * , . y z z z A B C D z z z z E F G H z z z z z z z I J K ",
"> * * * , . y z z z A B C D z z z z E F G H z z z z z z z I J K ",
"> * * * , . y z z z A B C D L M N O E F G H z z z z z z z I J K ",
"> * * * , . y z z z A B C D P G Q R E F G H z z z z z z z I J K ",
"> * * * , . S z z z A B C D O T U V E F G H z z z W X T Y I J K ",
"> * * * , . Z z z z A B C D z W W z E F G H z z z `  ...+.I J K ",
"> * * * , . @.N W z A B C D z z z z E F G H z z X #.$.%.&.*.=.K ",
"> * * * , . -.;.L W A B C D z W W z E F G H W ` #.>.,.,.,.'.).K ",
"> * * * , . !.~.;.N A B C D O T U V E F G H X  .$.,.&.{.].'.).K ",
"> * * * , . ^./.>.(.A B C D P G Q R E F G H U %.%...T O _.:.<.K ",
"> * * * * [.}.|.,.(.A B C D L M N O E F G H U %.&.+.Y A 1.2.3.K ",
"> * * * * 4.5.6.7.8.A B C D z z z z E F G H 6.7.8.z O P L I J K ",
"> * * * * 9.0.V a.P A B C D z z z z E F G H V a.P W T G M I J K ",
"> * * * * > b.V z z A B C D A Y c.A E F G H z z d.M e.f.#.g.h.K ",
"> * * * * * i.U W z A B C D V j.;.c.E F G H z z k.l.C ,.m.n.o.K ",
"& p.p.p.p.p.q.r.s.P A B C D d.{.j.Y E F G H V a.t.>.>.>.>.'.).u.",
"v.w.w.w.w.w.x.f.y.8.A B C D W d.V A E F G H 6.7.z.>.>.>.>.'.).A.",
"B.C.C.D.E.F.G.>.>.(.A B C D z z z z E F G H U %.>.>.>.>.>.'.).H."};
