/* XPM */
static char * down_2_xpm[] = {
"32 32 8 1",
" 	c None",
".	c #252525",
"+	c #414141",
"@	c #2D2524",
"#	c #413A3A",
"$	c #241D1D",
"%	c #3F3232",
"&	c #000000",
"                                ",
"                                ",
"               .                ",
"              .+.               ",
"              .+.               ",
"              .+@               ",
"              @+@               ",
"              @#@               ",
"              $%%@              ",
"            .$#+++$ .           ",
"           .+.#####.+.          ",
"           .++.%%%.++.          ",
"           .++.....++.          ",
"           .+++++++++.          ",
"           .++&+++&++@          ",
"           @++&+++&++@          ",
"           @#+++&+++#$          ",
"            @##+++##@           ",
"            &$$$$$$$&           ",
"            $%%%%%%%$           ",
"            @#######@           ",
"             @+@@@+@            ",
"             @#@ @+@            ",
"             @#@ @+@            ",
"              @@ @#@            ",
"                 @#@            ",
"                 @@             ",
"                                ",
"                                ",
"                                ",
"                                ",
"                                "};
