/* XPM */
static char * down_xpm[] = {
"32 32 52 1",
" 	c #B78C41",
".	c #B3883D",
"+	c #AC8035",
"@	c #AE8338",
"#	c #B68A40",
"$	c #B1863B",
"%	c #AA7E33",
"&	c #B0853A",
"*	c #B58A3F",
"=	c #A87C31",
"-	c #B2863B",
";	c #B2873C",
">	c #AB7F34",
",	c #A87B31",
"'	c #A6792E",
")	c #A77B30",
"!	c #AE8237",
"~	c #9E7127",
"{	c #A4772D",
"]	c #B4893E",
"^	c #9A6C22",
"/	c #B68B40",
"(	c #9C6F24",
"_	c #AF8339",
":	c #252525",
"<	c #A97D32",
"[	c #AE8238",
"}	c #AB7F35",
"|	c #9C6E24",
"1	c #414141",
"2	c #A77A30",
"3	c #AD8136",
"4	c #B1853A",
"5	c #A2752B",
"6	c #9D6F25",
"7	c #B5893E",
"8	c #AF8338",
"9	c #A07328",
"0	c #A5792E",
"a	c #2D2524",
"b	c #9E7026",
"c	c #B1853B",
"d	c #B4883D",
"e	c #B08439",
"f	c #A67A2F",
"g	c #996B21",
"h	c #A3762C",
"i	c #413A3A",
"j	c #A2742A",
"k	c #241D1D",
"l	c #3F3232",
"m	c #000000",
"     .+@#$%&  *+=-    ;>,')%$   ",
"     !~{]%^=   //     +('*)^%   ",
"     ;%))))_   :      $<[/_=&   ",
"//    /}|'*/ /:1:      //     //",
"+=-  -=2<,'[/3:1:     4)3/   *+=",
"56}7/890]>(</):1a/  /]>b)/  *c56",
"(^9=;d!e/;+$ 4a1a$  $2f>4  /+5(^",
"^g|hc         aia_  _j2]   /=6^g",
"9|)e*         klk]  ]_$/    -}9|",
"=he  *c;/  : a111a :         7=h",
";c*  eh=7 :1:iiiii:1:        /;c",
"   *e)|9}-:11:lll:11:_$/        ",
"   ch|g^6=:11:::::11:j2]        ",
"e!d;=9^(5+:111111111:2f>4 $+;/e!",
"098/7}65c*:11m111m11a]>b)/<(>]09",
"2=-  -=+* a11m111m11a 4)3/[',<2=",
"}/    //  ai111m111ik  // /*'|}/",
")%;      &=aii111iia      _))))%",
"{~!      %^mkkkkkkkm //   =^%]{~",
"@+.      $%mlllllllm-=+*  &%$#@+",
"         #]kiiiiiiik}65c*       ",
"         @{a1111111a9^(5+/      ",
"         +~%a1aaa1ah|g^6=/      ",
"         .!;aiadaiae)|9}-       ",
"            aia;aia eh=7        ",
"            aia=aia *c;/        ",
"             aa9aae*  d8- ;!.   ",
"            /=6^g|hc  !9=/%~+   ",
"            /+5(^9=;  e02}){@   ",
"             *c56}7/  /]<|)]#   ",
"     .+@#$%&  *+=-    ;>,')%$   ",
"     !~{]%^=   //     +('*)^%   "};
