/* XPM */
static char * right_xpm[] = {
"32 32 52 1",
" 	c #B78C41",
".	c #B3883D",
"+	c #AC8035",
"@	c #AE8338",
"#	c #B68A40",
"$	c #B1863B",
"%	c #AA7E33",
"&	c #B0853A",
"*	c #B58A3F",
"=	c #A87C31",
"-	c #B2863B",
";	c #B2873C",
">	c #AB7F34",
",	c #A87B31",
"'	c #A6792E",
")	c #A77B30",
"!	c #AE8237",
"~	c #9E7127",
"{	c #A4772D",
"]	c #B4893E",
"^	c #9A6C22",
"/	c #B68B40",
"(	c #9C6F24",
"_	c #AF8339",
":	c #A97D32",
"<	c #AE8238",
"[	c #AB7F35",
"}	c #9C6E24",
"|	c #A77A30",
"1	c #AD8136",
"2	c #B1853A",
"3	c #A2752B",
"4	c #9D6F25",
"5	c #B5893E",
"6	c #AF8338",
"7	c #A07328",
"8	c #A5792E",
"9	c #9E7026",
"0	c #B1853B",
"a	c #B4883D",
"b	c #B08439",
"c	c #252525",
"d	c #A67A2F",
"e	c #996B21",
"f	c #A3762C",
"g	c #414141",
"h	c #A2742A",
"i	c #413A3A",
"j	c #2D2524",
"k	c #000000",
"l	c #241D1D",
"m	c #3F3232",
"     .+@#$%&  *+=-    ;>,')%$   ",
"     !~{]%^=   //     +('*)^%   ",
"     ;%))))_          $:</_=&   ",
"//    /[}'*/ //        //     //",
"+=-  -=|:,'</1)2      2)1/   *+=",
"34[5/678]>(:/)9>]/  /]>9)/  *034",
"(^7=;a!bc;+$ 2>d|$  $|d>2  /+3(^",
"^e}f0  cgc    ]|h_  _c|]   /=4^e",
"7})b*  cgc    /$_]  cic/    -[7}",
"=fb  *0jgc         ciggc     5=f",
";0*  bfjgc         cgggccc   /;0",
"   *b)}jgc    /$_]cgggggggc     ",
"   0f}ejgc/   ]|h_jgggggkgc     ",
"b!a;=7^ligc  2>d|$jgggggkggk;/b!",
"876/5[43jggcccccjligggggggij>]87",
"|=-  -=+ligggggggggigggggij',:|=",
"[/    // jggggggggggiimlll/*'}[/",
")%;      jgggggggggggil   _))))%",
"{~!      liggggggggggil   =^%]{~",
"@+.      $lgggggggggil+*  &%$#@+",
"         #jijjjjjjjij430*       ",
"         @jij|8b  jij^(3+/      ",
"         +jij=7!  jije^4=/      ",
"         .jij-6a  jij}7[-       ",
"          jjj /;0*jjjf=5        ",
"              5=fb  *0;/        ",
"             -[7})b*  a6- ;!.   ",
"            /=4^e}f0  !7=/%~+   ",
"            /+3(^7=;  b8|[){@   ",
"             *034[5/  /]:})]#   ",
"     .+@#$%&  *+=-    ;>,')%$   ",
"     !~{]%^=   //     +('*)^%   "};
