/* XPM */
static char * up_xpm[] = {
"32 32 52 1",
" 	c #B78C41",
".	c #B3883D",
"+	c #AC8035",
"@	c #AE8338",
"#	c #B68A40",
"$	c #B1863B",
"%	c #AA7E33",
"&	c #B0853A",
"*	c #B58A3F",
"=	c #A87C31",
"-	c #B2863B",
";	c #B2873C",
">	c #AB7F34",
",	c #A87B31",
"'	c #A6792E",
")	c #A77B30",
"!	c #AE8237",
"~	c #9E7127",
"{	c #A4772D",
"]	c #B4893E",
"^	c #9A6C22",
"/	c #B68B40",
"(	c #9C6F24",
"_	c #AF8339",
":	c #A97D32",
"<	c #AE8238",
"[	c #AB7F35",
"}	c #9C6E24",
"|	c #A77A30",
"1	c #AD8136",
"2	c #B1853A",
"3	c #A2752B",
"4	c #9D6F25",
"5	c #B5893E",
"6	c #AF8338",
"7	c #A07328",
"8	c #A5792E",
"9	c #2D2524",
"0	c #9E7026",
"a	c #B1853B",
"b	c #B4883D",
"c	c #B08439",
"d	c #413A3A",
"e	c #A67A2F",
"f	c #996B21",
"g	c #A3762C",
"h	c #414141",
"i	c #A2742A",
"j	c #3F3232",
"k	c #252525",
"l	c #241D1D",
"m	c #000000",
"     .+@#$%&  *+=-    ;>,')%$   ",
"     !~{]%^=   //     +('*)^%   ",
"     ;%))))_          $:</_=&   ",
"//    /[}'*/ //        //     //",
"+=-  -=|:,'</1)2      2)1/   *+=",
"34[5/678]>(9/)0>]/ 9/]>0)/  *a34",
"(^7=;b!c/;9d92>e|$9d9|e>2  /+3(^",
"^f}ga     9hd9]|i9dh9i|]   /=4^f",
"7})c*     9hj99999jh9_$/    -[7}",
"=gc  *a;/ 9d9hhhhh9d9        5=g",
";a*  cg=5 9dhhhkhhhdl        /;a",
"   *c)}7[-ldhhkhkhhdl_$/        ",
"   ag}f^4=ljdhkh9hdjmi|]        ",
"c!b;=7^(3+/mjd9h9djm$|e>2 $+;/c!",
"876/5[43a* mdd9h9ddm/]>0)/:(>]87",
"|=-  -=+*  ldhlhlhdl  2)1/<',:|=",
"[/    //   9h9dhd9h9   // /*'}[/",
")%;      &=kdhhhhhdk      _))))%",
"{~!      %^khhhhhhhk //   =^%]{~",
"@+.      $%9hhhhhhh9-=+*  &%$#@+",
"         #]ldhhhhhdl[43a*       ",
"         @{)lh999hl=7^(3+/      ",
"         +~%9d9!9d9g}f^4=/      ",
"         .!;9d9b9d9c)}7[-       ",
"            9d9;9d9 cg=5        ",
"             99=99  *a;/        ",
"             -[7})c*  b6- ;!.   ",
"            /=4^f}ga  !7=/%~+   ",
"            /+3(^7=;  c8|[){@   ",
"             *a34[5/  /]:})]#   ",
"     .+@#$%&  *+=-    ;>,')%$   ",
"     !~{]%^=   //     +('*)^%   "};
